<svg width="167" height="168" viewBox="0 0 167 168" fill="none" xmlns="http://www.w3.org/2000/svg">
<g filter="url(#filter0_d)">
<path d="M120.688 140H46.3125C33.9886 140 24 129.927 24 117.5V42.5C24 30.0725 33.9886 20 46.3125 20H120.688C133.011 20 143 30.0725 143 42.5V117.5C143 129.927 133.011 140 120.688 140Z" fill="white"/>
<path d="M103.953 77.498C101.465 77.498 99.1337 78.473 97.3784 80.243L83.7418 93.9905C81.9865 95.7605 81.0197 98.1155 81.0197 100.621C81.0197 105.792 85.1921 109.996 90.3165 109.996C92.8044 109.996 95.136 109.021 96.8913 107.247L110.524 93.4993C112.283 91.733 113.25 89.378 113.25 86.873C113.25 81.7055 109.078 77.498 103.953 77.498V77.498ZM93.3845 103.718C92.5664 104.547 91.4768 105.001 90.3165 105.001C87.9254 105.001 85.9767 103.039 85.9767 100.624C85.9767 99.4543 86.4267 98.3593 87.2486 97.5305L92.3135 92.423L98.4494 98.6105L93.3845 103.718ZM107.021 89.9668L101.956 95.0743L95.8203 88.8868L100.889 83.7793C101.703 82.9543 102.793 82.5005 103.953 82.5005C106.344 82.5005 108.293 84.4618 108.293 86.8768C108.293 88.043 107.843 89.1418 107.021 89.9668V89.9668Z" fill="#3C93DB"/>
<path d="M91.1867 50C87.8658 50 84.4929 50.8737 80.8969 52.6512C78.4425 53.8775 76.1629 53.8775 73.7085 52.6512C70.1125 50.8737 66.7396 50 63.244 50C58.0154 50 53.75 54.3238 53.75 59.6263C53.75 64.6025 54.5198 69.5525 56.0073 74.3L57.7439 79.7C58.6104 82.475 59.2054 85.3738 59.5289 88.2763L60.3954 96.575C60.7673 99.95 63.5452 102.5 66.9144 102.5C70.0642 102.5 72.764 100.224 73.3367 97.1L75.5939 84.95C75.7427 84.125 76.4604 83.4988 77.3046 83.4988C78.1487 83.4988 78.8664 84.125 79.0152 84.95L80.0825 90.6238C80.1308 90.575 80.1829 90.5 80.2312 90.4475L84.3218 86.3225L83.9016 84.0463C83.3066 80.8213 80.5287 78.4962 77.3083 78.4962C74.0841 78.4962 71.3099 80.8213 70.7149 84.0463L68.4577 96.17C68.3349 96.9463 67.6656 97.4938 66.9218 97.4938C66.1037 97.4938 65.4343 96.8675 65.3339 96.0425L64.4674 87.7438C64.1216 84.4925 63.4522 81.2675 62.4593 78.17L60.7487 72.77C59.4099 68.5212 58.7145 64.0962 58.7145 59.6187C58.7145 57.0687 60.7487 54.995 63.4262 54.995C65.981 54.995 68.6324 55.6962 71.5331 57.1437C75.3745 59.045 79.242 59.045 83.0872 57.1437C85.9878 55.6925 88.6393 54.995 91.3689 54.995C93.8716 54.995 95.9058 57.0687 95.9058 59.6187C95.9058 64.0925 95.2103 68.5175 93.8716 72.77L92.161 78.17C92.1349 78.2938 92.0866 78.395 92.0606 78.5187L93.8716 76.6925C95.3107 75.2413 96.9953 74.1425 98.8547 73.4675C100.167 68.9675 100.863 64.3175 100.863 59.6187C100.855 54.3237 96.59 50 91.1867 50V50Z" fill="#1E4388"/>
</g>
<defs>
<filter id="filter0_d" x="0" y="0" width="167" height="168" filterUnits="userSpaceOnUse" color-interpolation-filters="sRGB">
<feFlood flood-opacity="0" result="BackgroundImageFix"/>
<feColorMatrix in="SourceAlpha" type="matrix" values="0 0 0 0 0 0 0 0 0 0 0 0 0 0 0 0 0 0 127 0" result="hardAlpha"/>
<feOffset dy="4"/>
<feGaussianBlur stdDeviation="12"/>
<feComposite in2="hardAlpha" operator="out"/>
<feColorMatrix type="matrix" values="0 0 0 0 0 0 0 0 0 0 0 0 0 0 0 0 0 0 0.09 0"/>
<feBlend mode="normal" in2="BackgroundImageFix" result="effect1_dropShadow"/>
<feBlend mode="normal" in="SourceGraphic" in2="effect1_dropShadow" result="shape"/>
</filter>
</defs>
</svg>
