<svg width="130" height="131" viewBox="0 0 130 131" fill="none" xmlns="http://www.w3.org/2000/svg">
<g clip-path="url(#clip0)" filter="url(#filter0_d)">
<path d="M102.5 121.023H27.5C15.0725 121.023 5 110.951 5 98.5234V23.5234C5 11.0959 15.0725 1.02344 27.5 1.02344H102.5C114.927 1.02344 125 11.0959 125 23.5234V98.5234C125 110.951 114.927 121.023 102.5 121.023Z" fill="white"/>
<path d="M75.5488 91.0253C72.1401 91.0253 69.2151 88.5991 68.5926 85.2541L66.0501 71.8216C65.8551 70.7453 64.9176 69.9803 63.8151 69.9803C62.7126 69.9803 61.7751 70.7453 61.5876 71.7991L59.0376 85.2616C58.4076 88.5991 55.4826 91.0253 52.0701 91.0253C48.4213 91.0253 45.3838 88.3028 45.0126 84.6916L44.0151 75.5228C43.6738 72.2453 42.9913 69.0428 41.9826 65.9903L40.0476 59.9716C38.3563 54.7778 37.4976 49.3366 37.4976 43.8053C37.4976 38.0753 42.1738 33.4141 47.9263 33.4141C51.8113 33.4141 55.5688 34.3628 59.6076 36.3166C62.3113 37.6253 64.9026 37.6891 67.5463 36.5003C68.8026 35.9341 70.2838 36.4966 70.8501 37.7603C71.4163 39.0203 70.8538 40.4978 69.5938 41.0641C65.5813 42.8641 61.4901 42.7816 57.4326 40.8166C54.0913 39.2003 51.0426 38.4128 48.1176 38.4128C44.9376 38.4166 42.5001 40.8353 42.5001 43.8091C42.5001 48.8116 43.2763 53.7316 44.8063 58.4341L46.7376 64.4453C47.8476 67.8203 48.6088 71.3753 48.9838 74.9941L49.9851 84.1628C50.0938 85.2316 50.9901 86.0228 52.0701 86.0228C53.0751 86.0228 53.9338 85.3141 54.1138 84.3353L56.6638 70.8878C57.2788 67.4716 60.2863 64.9778 63.8113 64.9778C67.3363 64.9778 70.3438 67.4716 70.9663 70.9103L73.5088 84.3278C73.6926 85.3141 74.5513 86.0228 75.5526 86.0228C76.6326 86.0228 77.5288 85.2278 77.6376 84.1778L78.6388 74.9828C79.0176 71.3678 79.7751 67.8128 80.8926 64.4266L82.8163 58.4416C83.5438 56.2103 84.0913 53.9341 84.4926 51.4628C84.7138 50.1016 85.9776 49.1678 87.3651 49.3966C88.7263 49.6178 89.6526 50.9041 89.4313 52.2653C88.9888 54.9878 88.3813 57.5116 87.5788 59.9791L85.6513 65.9716C84.6388 69.0391 83.9563 72.2416 83.6113 75.5116L82.6138 84.7028C82.2351 88.3028 79.1976 91.0253 75.5488 91.0253V91.0253Z" fill="#1E4388"/>
<path d="M88.6813 56.0697C87.2976 56.0697 86.0001 55.3384 85.3251 54.1084L84.3201 52.2784C83.8813 51.4797 82.7638 51.0972 81.7626 51.3972C78.1288 52.5034 74.8063 50.9284 72.8863 47.1784C72.1438 45.7234 70.7713 44.4297 68.4313 42.9822C67.2801 42.2659 66.4551 41.1297 66.1738 39.8584C65.9038 38.6322 66.1476 37.3534 66.8638 36.2622C66.8826 36.2359 66.8976 36.2097 66.9163 36.1834C69.0538 32.9997 72.8676 31.0234 76.9026 31.0234C85.5051 31.0234 92.5026 37.5109 92.5026 45.4797V52.3722C92.5026 54.0747 91.3626 55.5109 89.6676 55.9459C89.3376 56.0284 89.0076 56.0697 88.6813 56.0697Z" fill="#3C93DB"/>
<g clip-path="url(#clip1)">
<path d="M102.5 121.023H27.5C15.0725 121.023 5 110.951 5 98.5234V23.5234C5 11.0959 15.0725 1.02344 27.5 1.02344H102.5C114.927 1.02344 125 11.0959 125 23.5234V98.5234C125 110.951 114.927 121.023 102.5 121.023Z" fill="white"/>
<path d="M88.126 58.5222H79.3398C76.4823 58.5222 73.9098 56.9322 72.631 54.3784L71.6448 52.4059C71.2173 51.5547 70.3623 51.0259 69.4098 51.0259H60.5898C59.6373 51.0259 58.7823 51.5547 58.3548 52.4059L57.3685 54.3784C56.0898 56.9359 53.5173 58.5222 50.6598 58.5222H41.8735V53.5234H50.6598C51.6123 53.5234 52.4673 52.9947 52.8948 52.1434L53.881 50.1709C55.1598 47.6097 57.7323 46.0234 60.5898 46.0234H69.4098C72.2673 46.0234 74.8398 47.6134 76.1185 50.1672L77.1048 52.1397C77.5285 52.9947 78.3873 53.5234 79.3398 53.5234H88.126V58.5222Z" fill="#3C93DB"/>
<path d="M77.3336 91.0234C73.8161 91.0234 70.7898 88.5297 70.1411 85.0947L67.4786 71.0434C67.2573 69.8734 66.2148 69.0259 64.9998 69.0259C63.7848 69.0259 62.7423 69.8734 62.5211 71.0434L59.8586 85.0984C59.2098 88.5297 56.1836 91.0234 52.6661 91.0234C48.9161 91.0234 45.7886 88.2334 45.3873 84.5284L44.3448 74.9059C43.9773 71.5197 43.2573 68.1559 42.2036 64.9122L40.1711 58.6497C38.3973 53.1859 37.4973 47.5084 37.4973 41.7747C37.5011 35.8459 42.3611 31.0234 48.3348 31.0234C52.4111 31.0234 56.3336 32.0134 60.5373 34.0534C63.5411 35.5122 66.4623 35.5122 69.4661 34.0534C73.6661 32.0134 77.5923 31.0234 81.4623 31.0234C87.6386 31.0234 92.4986 35.8459 92.4986 41.7747C92.4986 47.5122 91.5986 53.1897 89.8248 58.6497L87.7923 64.9122C86.7386 68.1597 86.0186 71.5197 85.6511 74.9059L84.6086 84.5284C84.2111 88.2334 81.0836 91.0234 77.3336 91.0234V91.0234ZM64.9998 64.0234C68.6148 64.0234 71.7236 66.5847 72.3911 70.1134L75.0536 84.1647C75.2561 85.2409 76.2161 86.0209 77.3336 86.0209C78.5223 86.0209 79.5161 85.1472 79.6436 83.9884L80.6861 74.3659C81.0873 70.6384 81.8823 66.9372 83.0411 63.3672L85.0736 57.1047C86.6823 52.1434 87.4998 46.9834 87.4998 41.7747C87.4998 38.6059 84.8823 36.0259 81.6648 36.0259C78.3611 36.0259 75.1511 36.8509 71.6448 38.5534C67.2348 40.6909 62.7611 40.6909 58.3511 38.5534C54.8448 36.8509 51.6311 36.0259 48.5336 36.0259C45.1136 36.0259 42.4961 38.6059 42.4961 41.7747C42.4961 46.9872 43.3136 52.1434 44.9223 57.1084L46.9548 63.3709C48.1136 66.9409 48.9086 70.6422 49.3098 74.3697L50.3523 83.9922C50.4798 85.1509 51.4698 86.0247 52.6623 86.0247C53.7798 86.0247 54.7398 85.2447 54.9423 84.1684L57.6048 70.1172C58.2761 66.5847 61.3848 64.0234 64.9998 64.0234V64.0234Z" fill="#1E4388"/>
</g>
</g>
<defs>
<filter id="filter0_d" x="0" y="0.0234375" width="130" height="130" filterUnits="userSpaceOnUse" color-interpolation-filters="sRGB">
<feFlood flood-opacity="0" result="BackgroundImageFix"/>
<feColorMatrix in="SourceAlpha" type="matrix" values="0 0 0 0 0 0 0 0 0 0 0 0 0 0 0 0 0 0 127 0" result="hardAlpha"/>
<feOffset dy="4"/>
<feGaussianBlur stdDeviation="2.5"/>
<feComposite in2="hardAlpha" operator="out"/>
<feColorMatrix type="matrix" values="0 0 0 0 0 0 0 0 0 0 0 0 0 0 0 0 0 0 0.05 0"/>
<feBlend mode="normal" in2="BackgroundImageFix" result="effect1_dropShadow"/>
<feBlend mode="normal" in="SourceGraphic" in2="effect1_dropShadow" result="shape"/>
</filter>
<clipPath id="clip0">
<rect width="120" height="120" fill="white" transform="translate(5 1.02344)"/>
</clipPath>
<clipPath id="clip1">
<rect width="120" height="120" fill="white" transform="translate(5 1.02344)"/>
</clipPath>
</defs>
</svg>
