<svg width="130" height="131" viewBox="0 0 130 131" fill="none" xmlns="http://www.w3.org/2000/svg">
<g clip-path="url(#clip0)" filter="url(#filter0_d)">
<path d="M102.5 121.023H27.5C15.0725 121.023 5 110.951 5 98.5234V23.5234C5 11.0959 15.0725 1.02344 27.5 1.02344H102.5C114.927 1.02344 125 11.0959 125 23.5234V98.5234C125 110.951 114.927 121.023 102.5 121.023Z" fill="white"/>
<path d="M75.5488 91.0253C72.1401 91.0253 69.2151 88.5991 68.5926 85.2541L66.0501 71.8216C65.8551 70.7453 64.9176 69.9803 63.8151 69.9803C62.7126 69.9803 61.7751 70.7453 61.5876 71.7991L59.0376 85.2616C58.4076 88.5991 55.4826 91.0253 52.0701 91.0253C48.4213 91.0253 45.3838 88.3028 45.0126 84.6916L44.0151 75.5228C43.6738 72.2453 42.9913 69.0428 41.9826 65.9903L40.0476 59.9716C38.3563 54.7778 37.4976 49.3366 37.4976 43.8053C37.4976 38.0753 42.1738 33.4141 47.9263 33.4141C51.8113 33.4141 55.5688 34.3628 59.6076 36.3166C62.3113 37.6253 64.9026 37.6891 67.5463 36.5003C68.8026 35.9341 70.2838 36.4966 70.8501 37.7603C71.4163 39.0203 70.8538 40.4978 69.5938 41.0641C65.5813 42.8641 61.4901 42.7816 57.4326 40.8166C54.0913 39.2003 51.0426 38.4128 48.1176 38.4128C44.9376 38.4166 42.5001 40.8353 42.5001 43.8091C42.5001 48.8116 43.2763 53.7316 44.8063 58.4341L46.7376 64.4453C47.8476 67.8203 48.6088 71.3753 48.9838 74.9941L49.9851 84.1628C50.0938 85.2316 50.9901 86.0228 52.0701 86.0228C53.0751 86.0228 53.9338 85.3141 54.1138 84.3353L56.6638 70.8878C57.2788 67.4716 60.2863 64.9778 63.8113 64.9778C67.3363 64.9778 70.3438 67.4716 70.9663 70.9103L73.5088 84.3278C73.6926 85.3141 74.5513 86.0228 75.5526 86.0228C76.6326 86.0228 77.5288 85.2278 77.6376 84.1778L78.6388 74.9828C79.0176 71.3678 79.7751 67.8128 80.8926 64.4266L82.8163 58.4416C83.5438 56.2103 84.0913 53.9341 84.4926 51.4628C84.7138 50.1016 85.9776 49.1678 87.3651 49.3966C88.7263 49.6178 89.6526 50.9041 89.4313 52.2653C88.9888 54.9878 88.3813 57.5116 87.5788 59.9791L85.6513 65.9716C84.6388 69.0391 83.9563 72.2416 83.6113 75.5116L82.6138 84.7028C82.2351 88.3028 79.1976 91.0253 75.5488 91.0253V91.0253Z" fill="#1E4388"/>
<path d="M88.6813 56.0697C87.2976 56.0697 86.0001 55.3384 85.3251 54.1084L84.3201 52.2784C83.8813 51.4797 82.7638 51.0972 81.7626 51.3972C78.1288 52.5034 74.8063 50.9284 72.8863 47.1784C72.1438 45.7234 70.7713 44.4297 68.4313 42.9822C67.2801 42.2659 66.4551 41.1297 66.1738 39.8584C65.9038 38.6322 66.1476 37.3534 66.8638 36.2622C66.8826 36.2359 66.8976 36.2097 66.9163 36.1834C69.0538 32.9997 72.8676 31.0234 76.9026 31.0234C85.5051 31.0234 92.5026 37.5109 92.5026 45.4797V52.3722C92.5026 54.0747 91.3626 55.5109 89.6676 55.9459C89.3376 56.0284 89.0076 56.0697 88.6813 56.0697Z" fill="#3C93DB"/>
<g clip-path="url(#clip1)">
<path d="M102.5 121.023H27.5C15.0725 121.023 5 110.951 5 98.5234V23.5234C5 11.0959 15.0725 1.02344 27.5 1.02344H102.5C114.927 1.02344 125 11.0959 125 23.5234V98.5234C125 110.951 114.927 121.023 102.5 121.023Z" fill="white"/>
<path d="M95 41.2445C95 38.507 93.26 36.1108 90.6763 35.2858C72.9163 29.6008 57.0763 29.6045 39.3237 35.2858C36.74 36.1108 35 38.5033 35 41.2445V51.0283C35 53.7845 37.2162 56.027 39.9425 56.027H90.0537C92.78 56.027 94.9963 53.7845 94.9963 51.0283V41.2445H95ZM40.8463 40.0483C57.5488 34.7008 72.4475 34.7008 89.1537 40.0483C89.6037 40.1908 89.8963 40.6183 89.9563 41.0983C87.5713 40.9858 85.085 41.8333 83.345 43.5958C81.7813 42.0133 79.6175 41.027 77.2213 41.027C74.8325 41.027 72.6725 42.0058 71.1087 43.5808C69.5487 42.0058 67.385 41.027 64.9962 41.027C62.6075 41.027 60.4475 42.0058 58.8838 43.5808C57.3238 42.0058 55.16 41.027 52.7713 41.027C50.3788 41.027 48.2113 42.0133 46.6513 43.592C44.93 41.837 42.4362 40.9895 40.04 41.0983C40.1037 40.6183 40.3963 40.1908 40.8463 40.0483V40.0483ZM39.9988 46.0708C41.0863 45.8945 42.29 46.2733 43.0737 47.0795C43.7787 47.8183 44.165 48.7745 44.165 49.7758V51.0245H39.9988V46.0708ZM49.1675 49.7795V49.6408C49.1675 47.6495 50.7875 46.0295 52.7788 46.0295C54.77 46.0295 56.39 47.6495 56.39 49.6408V51.0283H49.1675V49.7795ZM61.3887 49.6408C61.3887 47.6495 63.0087 46.0295 65 46.0295C66.9913 46.0295 68.6112 47.6495 68.6112 49.6408V51.0283H61.3887V49.6408ZM73.61 49.6408C73.61 47.6495 75.23 46.0295 77.2213 46.0295C79.2125 46.0295 80.8325 47.6495 80.8325 49.6408V49.7795V51.0283H73.61V49.6408ZM85.8313 51.0283V49.7795C85.8313 48.7783 86.2212 47.8183 86.9037 47.102C87.7175 46.2695 88.9138 45.902 90.0125 46.0745L90.0537 51.032H85.8313V51.0283Z" fill="#1E4388"/>
<path d="M95 71.0183C95 68.262 92.7837 66.0195 90.0575 66.0195H39.9425C37.2162 66.0195 35 68.262 35 71.0183V80.802C35 83.5395 36.74 85.9358 39.3237 86.7608C57.0763 92.442 72.9163 92.4458 90.6763 86.7608C93.26 85.9358 95 83.5433 95 80.802V71.0183ZM40.0438 80.9445C42.44 81.0533 44.9337 80.2058 46.655 78.4508C48.2187 80.0333 50.3825 81.0158 52.775 81.0158C55.1637 81.0158 57.3237 80.037 58.8875 78.462C60.4475 80.037 62.6112 81.0158 65 81.0158C67.3888 81.0158 69.5487 80.037 71.1125 78.462C72.6725 80.037 74.8363 81.0158 77.225 81.0158C79.6213 81.0158 81.785 80.0295 83.3487 78.447C85.0887 80.2095 87.5713 81.057 89.96 80.9445C89.9 81.4245 89.6075 81.852 89.1575 81.9945C72.455 87.342 57.5563 87.342 40.85 81.9945C40.3963 81.8558 40.1038 81.4283 40.0438 80.9445V80.9445ZM39.9988 71.0183H44.165V72.267C44.165 73.2683 43.775 74.2283 43.0737 74.9633C42.2862 75.7695 41.0863 76.1483 39.9988 75.972V71.0183ZM49.1675 71.0183H56.39V72.4058C56.39 74.397 54.77 76.017 52.7788 76.017C50.7875 76.017 49.1675 74.397 49.1675 72.4058V72.267V71.0183ZM61.3887 71.0183H68.6112V72.4058C68.6112 74.397 66.9913 76.017 65 76.017C63.0087 76.017 61.3887 74.397 61.3887 72.4058V71.0183ZM73.61 71.0183H80.8325V72.267V72.4058C80.8325 74.397 79.2125 76.017 77.2213 76.017C75.23 76.017 73.61 74.397 73.61 72.4058V71.0183ZM90.0575 71.0183L90.0162 75.9758C88.9175 76.1483 87.7212 75.7808 86.9075 74.9483C86.225 74.232 85.835 73.272 85.835 72.2708V71.022H90.0575V71.0183Z" fill="#3C93DB"/>
</g>
</g>
<defs>
<filter id="filter0_d" x="0" y="0.0234375" width="130" height="130" filterUnits="userSpaceOnUse" color-interpolation-filters="sRGB">
<feFlood flood-opacity="0" result="BackgroundImageFix"/>
<feColorMatrix in="SourceAlpha" type="matrix" values="0 0 0 0 0 0 0 0 0 0 0 0 0 0 0 0 0 0 127 0" result="hardAlpha"/>
<feOffset dy="4"/>
<feGaussianBlur stdDeviation="2.5"/>
<feComposite in2="hardAlpha" operator="out"/>
<feColorMatrix type="matrix" values="0 0 0 0 0 0 0 0 0 0 0 0 0 0 0 0 0 0 0.05 0"/>
<feBlend mode="normal" in2="BackgroundImageFix" result="effect1_dropShadow"/>
<feBlend mode="normal" in="SourceGraphic" in2="effect1_dropShadow" result="shape"/>
</filter>
<clipPath id="clip0">
<rect width="120" height="120" fill="white" transform="translate(5 1.02344)"/>
</clipPath>
<clipPath id="clip1">
<rect width="120" height="120" fill="white" transform="translate(5 1.02344)"/>
</clipPath>
</defs>
</svg>
