<svg width="130" height="131" viewBox="0 0 130 131" fill="none" xmlns="http://www.w3.org/2000/svg">
<g clip-path="url(#clip0)" filter="url(#filter0_d)">
<path d="M102.5 121.023H27.5C15.0725 121.023 5 110.951 5 98.5234V23.5234C5 11.0959 15.0725 1.02344 27.5 1.02344H102.5C114.927 1.02344 125 11.0959 125 23.5234V98.5234C125 110.951 114.927 121.023 102.5 121.023Z" fill="white"/>
<path d="M75.5488 91.0253C72.1401 91.0253 69.2151 88.5991 68.5926 85.2541L66.0501 71.8216C65.8551 70.7453 64.9176 69.9803 63.8151 69.9803C62.7126 69.9803 61.7751 70.7453 61.5876 71.7991L59.0376 85.2616C58.4076 88.5991 55.4826 91.0253 52.0701 91.0253C48.4213 91.0253 45.3838 88.3028 45.0126 84.6916L44.0151 75.5228C43.6738 72.2453 42.9913 69.0428 41.9826 65.9903L40.0476 59.9716C38.3563 54.7778 37.4976 49.3366 37.4976 43.8053C37.4976 38.0753 42.1738 33.4141 47.9263 33.4141C51.8113 33.4141 55.5688 34.3628 59.6076 36.3166C62.3113 37.6253 64.9026 37.6891 67.5463 36.5003C68.8026 35.9341 70.2838 36.4966 70.8501 37.7603C71.4163 39.0203 70.8538 40.4978 69.5938 41.0641C65.5813 42.8641 61.4901 42.7816 57.4326 40.8166C54.0913 39.2003 51.0426 38.4128 48.1176 38.4128C44.9376 38.4166 42.5001 40.8353 42.5001 43.8091C42.5001 48.8116 43.2763 53.7316 44.8063 58.4341L46.7376 64.4453C47.8476 67.8203 48.6088 71.3753 48.9838 74.9941L49.9851 84.1628C50.0938 85.2316 50.9901 86.0228 52.0701 86.0228C53.0751 86.0228 53.9338 85.3141 54.1138 84.3353L56.6638 70.8878C57.2788 67.4716 60.2863 64.9778 63.8113 64.9778C67.3363 64.9778 70.3438 67.4716 70.9663 70.9103L73.5088 84.3278C73.6926 85.3141 74.5513 86.0228 75.5526 86.0228C76.6326 86.0228 77.5288 85.2278 77.6376 84.1778L78.6388 74.9828C79.0176 71.3678 79.7751 67.8128 80.8926 64.4266L82.8163 58.4416C83.5438 56.2103 84.0913 53.9341 84.4926 51.4628C84.7138 50.1016 85.9776 49.1678 87.3651 49.3966C88.7263 49.6178 89.6526 50.9041 89.4313 52.2653C88.9888 54.9878 88.3813 57.5116 87.5788 59.9791L85.6513 65.9716C84.6388 69.0391 83.9563 72.2416 83.6113 75.5116L82.6138 84.7028C82.2351 88.3028 79.1976 91.0253 75.5488 91.0253V91.0253Z" fill="#1E4388"/>
<path d="M88.6813 56.0697C87.2976 56.0697 86.0001 55.3384 85.3251 54.1084L84.3201 52.2784C83.8813 51.4797 82.7638 51.0972 81.7626 51.3972C78.1288 52.5034 74.8063 50.9284 72.8863 47.1784C72.1438 45.7234 70.7713 44.4297 68.4313 42.9822C67.2801 42.2659 66.4551 41.1297 66.1738 39.8584C65.9038 38.6322 66.1476 37.3534 66.8638 36.2622C66.8826 36.2359 66.8976 36.2097 66.9163 36.1834C69.0538 32.9997 72.8676 31.0234 76.9026 31.0234C85.5051 31.0234 92.5026 37.5109 92.5026 45.4797V52.3722C92.5026 54.0747 91.3626 55.5109 89.6676 55.9459C89.3376 56.0284 89.0076 56.0697 88.6813 56.0697Z" fill="#3C93DB"/>
<g clip-path="url(#clip1)" filter="url(#filter1_d)">
<path d="M102.5 121.023H27.5C15.0725 121.023 5 110.951 5 98.5234V23.5234C5 11.0959 15.0725 1.02344 27.5 1.02344H102.5C114.927 1.02344 125 11.0959 125 23.5234V98.5234C125 110.951 114.927 121.023 102.5 121.023Z" fill="white"/>
<path d="M75.5488 91.0253C72.1401 91.0253 69.2151 88.5991 68.5926 85.2541L66.0501 71.8216C65.8551 70.7453 64.9176 69.9803 63.8151 69.9803C62.7126 69.9803 61.7751 70.7453 61.5876 71.7991L59.0376 85.2616C58.4076 88.5991 55.4826 91.0253 52.0701 91.0253C48.4213 91.0253 45.3838 88.3028 45.0126 84.6916L44.0151 75.5228C43.6738 72.2453 42.9913 69.0428 41.9826 65.9903L40.0476 59.9716C38.3563 54.7778 37.4976 49.3366 37.4976 43.8053C37.4976 38.0753 42.1738 33.4141 47.9263 33.4141C51.8113 33.4141 55.5688 34.3628 59.6076 36.3166C62.3113 37.6253 64.9026 37.6891 67.5463 36.5003C68.8026 35.9341 70.2838 36.4966 70.8501 37.7603C71.4163 39.0203 70.8538 40.4978 69.5938 41.0641C65.5813 42.8641 61.4901 42.7816 57.4326 40.8166C54.0913 39.2003 51.0426 38.4128 48.1176 38.4128C44.9376 38.4166 42.5001 40.8353 42.5001 43.8091C42.5001 48.8116 43.2763 53.7316 44.8063 58.4341L46.7376 64.4453C47.8476 67.8203 48.6088 71.3753 48.9838 74.9941L49.9851 84.1628C50.0938 85.2316 50.9901 86.0228 52.0701 86.0228C53.0751 86.0228 53.9338 85.3141 54.1138 84.3353L56.6638 70.8878C57.2788 67.4716 60.2863 64.9778 63.8113 64.9778C67.3363 64.9778 70.3438 67.4716 70.9663 70.9103L73.5088 84.3278C73.6926 85.3141 74.5513 86.0228 75.5526 86.0228C76.6326 86.0228 77.5288 85.2278 77.6376 84.1778L78.6388 74.9828C79.0176 71.3678 79.7751 67.8128 80.8926 64.4266L82.8163 58.4416C83.5438 56.2103 84.0913 53.9341 84.4926 51.4628C84.7138 50.1016 85.9776 49.1678 87.3651 49.3966C88.7263 49.6178 89.6526 50.9041 89.4313 52.2653C88.9888 54.9878 88.3813 57.5116 87.5788 59.9791L85.6513 65.9716C84.6388 69.0391 83.9563 72.2416 83.6113 75.5116L82.6138 84.7028C82.2351 88.3028 79.1976 91.0253 75.5488 91.0253V91.0253Z" fill="#1E4388"/>
<path d="M88.6813 56.0697C87.2976 56.0697 86.0001 55.3384 85.3251 54.1084L84.3201 52.2784C83.8813 51.4797 82.7638 51.0972 81.7626 51.3972C78.1288 52.5034 74.8063 50.9284 72.8863 47.1784C72.1438 45.7234 70.7713 44.4297 68.4313 42.9822C67.2801 42.2659 66.4551 41.1297 66.1738 39.8584C65.9038 38.6322 66.1476 37.3534 66.8638 36.2622C66.8826 36.2359 66.8976 36.2097 66.9163 36.1834C69.0538 32.9997 72.8676 31.0234 76.9026 31.0234C85.5051 31.0234 92.5026 37.5109 92.5026 45.4797V52.3722C92.5026 54.0747 91.3626 55.5109 89.6676 55.9459C89.3376 56.0284 89.0076 56.0697 88.6813 56.0697Z" fill="#3C93DB"/>
<g clip-path="url(#clip2)">
<path d="M102.5 121.023H27.5C15.0725 121.023 5 110.951 5 98.5234V23.5234C5 11.0959 15.0725 1.02344 27.5 1.02344H102.5C114.927 1.02344 125 11.0959 125 23.5234V98.5234C125 110.951 114.927 121.023 102.5 121.023Z" fill="white"/>
<path d="M73.9362 91.0234C71.0637 91.0234 68.5887 88.9572 68.0412 86.1072L66.1174 75.6334C66.0162 75.0747 65.5362 74.6584 64.9999 74.6584C64.4637 74.6584 63.9874 75.0747 63.8862 75.6297L61.9624 86.0884C61.4149 88.9572 58.9362 91.0234 56.0637 91.0234C52.9812 91.0234 50.4237 88.6872 50.1162 85.5897L49.3699 78.4684C49.0924 75.9784 48.5749 73.5034 47.8399 71.1297L46.3737 66.4834C46.1337 65.7109 45.9237 64.9534 45.7099 64.1772C45.5074 63.4272 45.6649 62.6247 46.1412 62.0059C46.6137 61.3834 47.3449 61.0234 48.1249 61.0234H81.8749C82.6549 61.0234 83.3862 61.3834 83.8587 62.0059C84.3312 62.6247 84.4924 63.4272 84.2899 64.1772C84.0762 64.9572 83.8662 65.7147 83.6299 66.4684L82.1524 71.1447C81.4212 73.5072 80.9037 75.9822 80.6262 78.4872L79.8799 85.6084C79.5762 88.6872 77.0187 91.0234 73.9362 91.0234V91.0234ZM64.9999 69.6597C67.9624 69.6597 70.5012 71.7972 71.0337 74.7372L72.9537 85.1847C73.0474 85.6647 73.4599 86.0209 73.9362 86.0209C74.4349 86.0209 74.8549 85.6197 74.9074 85.0947L75.6574 77.9434C75.9724 75.1084 76.5499 72.3222 77.3824 69.6409L78.5262 66.0222H51.4699L52.6099 69.6297C53.4462 72.3184 54.0274 75.1084 54.3424 77.9284L55.0887 85.0797C55.1449 85.6234 55.5612 86.0209 56.0637 86.0209C56.5399 86.0209 56.9524 85.6609 57.0462 85.1622L58.9662 74.7259C59.4987 71.7934 62.0374 69.6597 64.9999 69.6597V69.6597Z" fill="#1E4388"/>
<path d="M83.0223 48.5247H76.996C75.1998 48.5247 73.5648 47.5984 72.721 46.1022L71.671 44.2384L58.2423 44.3622L57.2785 46.1022C56.431 47.6022 54.796 48.5284 52.9998 48.5284H46.9998C45.8223 48.5284 44.806 47.7072 44.5548 46.5559C44.0185 44.0809 43.7485 41.5909 43.7485 39.1534C43.7485 34.6684 47.6785 31.0234 52.5085 31.0234C55.5685 31.0234 58.6623 31.7322 61.8385 33.1347C63.9985 34.0834 66.0048 34.0834 68.1685 33.1347C71.341 31.7322 74.431 31.0234 77.3523 31.0234C79.801 31.0234 81.9723 31.8372 83.6035 33.3147C85.2873 34.8447 86.251 36.9672 86.251 39.1459C86.251 41.5384 85.9885 44.0209 85.471 46.5259C85.231 47.6922 84.2073 48.5247 83.0223 48.5247V48.5247ZM58.246 39.3559H71.7573C73.5535 39.3559 75.1885 40.2822 76.0323 41.7784L77.0823 43.6422L80.9185 43.5634C81.1398 42.0597 81.2523 40.5784 81.2523 39.1459C81.2523 38.3622 80.8923 37.6084 80.2435 37.0197C79.546 36.3859 78.541 36.0222 77.4948 36.0222C75.1323 36.0222 72.721 36.5884 70.1823 37.7059C66.7435 39.2209 63.256 39.2209 59.8248 37.7059C57.286 36.5884 54.8748 36.0222 52.651 36.0222C50.4385 36.0222 48.751 37.4247 48.751 39.1459C48.751 40.5859 48.8635 42.0522 49.0848 43.5222H53.0073L53.971 41.7822C54.811 40.2859 56.446 39.3559 58.246 39.3559V39.3559Z" fill="#3C93DB"/>
<path d="M75.6236 64.7734H54.3724C53.7686 64.7734 53.2024 64.4847 52.8499 63.9934C52.4974 63.5059 52.3999 62.8759 52.5911 62.3022L54.5224 56.5122C55.1224 54.7272 56.7911 53.5234 58.6774 53.5234H71.3224C73.2086 53.5234 74.8774 54.7272 75.4736 56.5159L77.4049 62.3059C77.5961 62.8759 77.4986 63.5059 77.1461 63.9972C76.7936 64.4884 76.2274 64.7734 75.6236 64.7734V64.7734Z" fill="#1E4388"/>
</g>
</g>
</g>
<defs>
<filter id="filter0_d" x="0" y="0.0234375" width="130" height="130" filterUnits="userSpaceOnUse" color-interpolation-filters="sRGB">
<feFlood flood-opacity="0" result="BackgroundImageFix"/>
<feColorMatrix in="SourceAlpha" type="matrix" values="0 0 0 0 0 0 0 0 0 0 0 0 0 0 0 0 0 0 127 0" result="hardAlpha"/>
<feOffset dy="4"/>
<feGaussianBlur stdDeviation="2.5"/>
<feComposite in2="hardAlpha" operator="out"/>
<feColorMatrix type="matrix" values="0 0 0 0 0 0 0 0 0 0 0 0 0 0 0 0 0 0 0.05 0"/>
<feBlend mode="normal" in2="BackgroundImageFix" result="effect1_dropShadow"/>
<feBlend mode="normal" in="SourceGraphic" in2="effect1_dropShadow" result="shape"/>
</filter>
<filter id="filter1_d" x="-4" y="-3.97656" width="138" height="138" filterUnits="userSpaceOnUse" color-interpolation-filters="sRGB">
<feFlood flood-opacity="0" result="BackgroundImageFix"/>
<feColorMatrix in="SourceAlpha" type="matrix" values="0 0 0 0 0 0 0 0 0 0 0 0 0 0 0 0 0 0 127 0" result="hardAlpha"/>
<feOffset dy="4"/>
<feGaussianBlur stdDeviation="4.5"/>
<feComposite in2="hardAlpha" operator="out"/>
<feColorMatrix type="matrix" values="0 0 0 0 0 0 0 0 0 0 0 0 0 0 0 0 0 0 0.1 0"/>
<feBlend mode="normal" in2="BackgroundImageFix" result="effect1_dropShadow"/>
<feBlend mode="normal" in="SourceGraphic" in2="effect1_dropShadow" result="shape"/>
</filter>
<clipPath id="clip0">
<rect width="120" height="120" fill="white" transform="translate(5 1.02344)"/>
</clipPath>
<clipPath id="clip1">
<rect width="120" height="120" fill="white" transform="translate(5 1.02344)"/>
</clipPath>
<clipPath id="clip2">
<rect width="120" height="120" fill="white" transform="translate(5 1.02344)"/>
</clipPath>
</defs>
</svg>
