<svg width="130" height="131" viewBox="0 0 130 131" fill="none" xmlns="http://www.w3.org/2000/svg">
<g clip-path="url(#clip0)" filter="url(#filter0_d)">
<path d="M102.5 121.023H27.5C15.0725 121.023 5 110.951 5 98.5234V23.5234C5 11.0959 15.0725 1.02344 27.5 1.02344H102.5C114.927 1.02344 125 11.0959 125 23.5234V98.5234C125 110.951 114.927 121.023 102.5 121.023Z" fill="#F9F9F9"/>
<path d="M75.5488 91.0253C72.1401 91.0253 69.2151 88.5991 68.5926 85.2541L66.0501 71.8216C65.8551 70.7453 64.9176 69.9803 63.8151 69.9803C62.7126 69.9803 61.7751 70.7453 61.5876 71.7991L59.0376 85.2616C58.4076 88.5991 55.4826 91.0253 52.0701 91.0253C48.4213 91.0253 45.3838 88.3028 45.0126 84.6916L44.0151 75.5228C43.6738 72.2453 42.9913 69.0428 41.9826 65.9903L40.0476 59.9716C38.3563 54.7778 37.4976 49.3366 37.4976 43.8053C37.4976 38.0753 42.1738 33.4141 47.9263 33.4141C51.8113 33.4141 55.5688 34.3628 59.6076 36.3166C62.3113 37.6253 64.9026 37.6891 67.5463 36.5003C68.8026 35.9341 70.2838 36.4966 70.8501 37.7603C71.4163 39.0203 70.8538 40.4978 69.5938 41.0641C65.5813 42.8641 61.4901 42.7816 57.4326 40.8166C54.0913 39.2003 51.0426 38.4128 48.1176 38.4128C44.9376 38.4166 42.5001 40.8353 42.5001 43.8091C42.5001 48.8116 43.2763 53.7316 44.8063 58.4341L46.7376 64.4453C47.8476 67.8203 48.6088 71.3753 48.9838 74.9941L49.9851 84.1628C50.0938 85.2316 50.9901 86.0228 52.0701 86.0228C53.0751 86.0228 53.9338 85.3141 54.1138 84.3353L56.6638 70.8878C57.2788 67.4716 60.2863 64.9778 63.8113 64.9778C67.3363 64.9778 70.3438 67.4716 70.9663 70.9103L73.5088 84.3278C73.6926 85.3141 74.5513 86.0228 75.5526 86.0228C76.6326 86.0228 77.5288 85.2278 77.6376 84.1778L78.6388 74.9828C79.0176 71.3678 79.7751 67.8128 80.8926 64.4266L82.8163 58.4416C83.5438 56.2103 84.0913 53.9341 84.4926 51.4628C84.7138 50.1016 85.9776 49.1678 87.3651 49.3966C88.7263 49.6178 89.6526 50.9041 89.4313 52.2653C88.9888 54.9878 88.3813 57.5116 87.5788 59.9791L85.6513 65.9716C84.6388 69.0391 83.9563 72.2416 83.6113 75.5116L82.6138 84.7028C82.2351 88.3028 79.1976 91.0253 75.5488 91.0253V91.0253Z" fill="#1E4388"/>
<path d="M88.6813 56.0697C87.2976 56.0697 86.0001 55.3384 85.3251 54.1084L84.3201 52.2784C83.8813 51.4797 82.7638 51.0972 81.7626 51.3972C78.1288 52.5034 74.8063 50.9284 72.8863 47.1784C72.1438 45.7234 70.7713 44.4297 68.4313 42.9822C67.2801 42.2659 66.4551 41.1297 66.1738 39.8584C65.9038 38.6322 66.1476 37.3534 66.8638 36.2622C66.8826 36.2359 66.8976 36.2097 66.9163 36.1834C69.0538 32.9997 72.8676 31.0234 76.9026 31.0234C85.5051 31.0234 92.5026 37.5109 92.5026 45.4797V52.3722C92.5026 54.0747 91.3626 55.5109 89.6676 55.9459C89.3376 56.0284 89.0076 56.0697 88.6813 56.0697Z" fill="#3C93DB"/>
<g clip-path="url(#clip1)" filter="url(#filter1_d)">
<g clip-path="url(#clip2)">
<path d="M102.5 121.023H27.5C15.0725 121.023 5 110.951 5 98.5234V23.5234C5 11.0959 15.0725 1.02344 27.5 1.02344H102.5C114.927 1.02344 125 11.0959 125 23.5234V98.5234C125 110.951 114.927 121.023 102.5 121.023Z" fill="#F9F9F9"/>
<path d="M63.1252 42.2735C58.3027 42.2735 54.3765 38.6135 54.3765 34.1135C54.3765 33.5623 54.4365 33.026 54.5602 32.4823C54.6765 31.9685 55.0027 31.5298 55.4602 31.271C55.9177 31.0085 56.454 30.9523 56.9602 31.1135C57.9502 31.4285 58.8877 31.7923 59.8252 32.2198C62.0452 33.2248 64.209 33.2248 66.4327 32.216C67.3665 31.7885 68.304 31.4248 69.294 31.1098C69.7965 30.9485 70.3402 31.0048 70.794 31.2673C71.2515 31.526 71.574 31.9685 71.694 32.4785C71.8177 33.0223 71.8777 33.5548 71.8777 34.1098C71.874 38.6135 67.9477 42.2735 63.1252 42.2735V42.2735Z" fill="#3C93DB"/>
<path d="M72.3836 91.0245C69.4474 91.0245 66.9199 88.9095 66.3649 85.992L64.3699 75.1133C64.2536 74.4908 63.7211 74.022 63.1249 74.022C62.5286 74.022 61.9961 74.487 61.8836 75.1058L59.8886 85.9733C59.3299 88.9095 56.8024 91.0245 53.8661 91.0245C50.7199 91.0245 48.1061 88.6358 47.7911 85.467L47.0186 78.0645C46.7336 75.4808 46.1974 72.9045 45.4286 70.422L43.9061 65.592C42.5561 61.302 41.8699 56.8658 41.8699 52.3958C41.8699 47.502 45.7999 43.5195 50.6261 43.5195C51.9161 43.5195 53.1011 43.6508 54.2974 43.9058C55.4186 44.1458 56.2324 45.1208 56.2661 46.2683C56.3899 50.022 59.3974 52.962 63.1174 52.962C66.8374 52.962 69.8486 50.022 69.9686 46.2683C70.0061 45.1208 70.8199 44.1458 71.9374 43.9058C73.1299 43.6508 74.3186 43.5195 75.4661 43.5195C77.9749 43.5195 80.1836 44.4495 81.8299 46.1408C83.4649 47.8245 84.3649 50.0445 84.3649 52.392C84.3649 56.8583 83.6786 61.2983 82.3286 65.5883L80.8061 70.4295C80.0411 72.9045 79.5011 75.477 79.2199 78.072L78.4474 85.4745C78.1436 88.6358 75.5299 91.0245 72.3836 91.0245V91.0245ZM63.1249 69.0233C66.1511 69.0233 68.7424 71.2058 69.2899 74.217L71.2811 85.0733C71.3824 85.617 71.8511 86.022 72.3836 86.022C72.9499 86.022 73.4224 85.5683 73.4824 84.9683L74.2586 77.5433C74.5774 74.6183 75.1774 71.727 76.0436 68.9408L77.5699 64.092C78.7699 60.2895 79.3774 56.3558 79.3774 52.3995C79.3774 51.3758 78.9686 50.367 78.2561 49.632C77.3449 48.6945 75.9574 48.4695 74.7236 48.5558C73.5836 53.9783 68.8399 57.9683 63.1286 57.9683C57.4136 57.9683 52.6699 53.9745 51.5336 48.552C51.2786 48.5333 51.0274 48.5258 50.7799 48.5258C48.5674 48.5258 46.8799 50.2658 46.8799 52.3995C46.8799 56.3558 47.4874 60.2895 48.6874 64.092L50.2099 68.9333C51.0761 71.7308 51.6761 74.622 51.9986 77.5358L52.7711 84.9608C52.8311 85.572 53.3074 86.0258 53.8736 86.0258C54.4099 86.0258 54.8749 85.6208 54.9799 85.062L56.9711 74.217C57.5074 71.2095 60.0986 69.0233 63.1249 69.0233V69.0233Z" fill="#1E4388"/>
</g>
</g>
</g>
<defs>
<filter id="filter0_d" x="0" y="0.0234375" width="130" height="130" filterUnits="userSpaceOnUse" color-interpolation-filters="sRGB">
<feFlood flood-opacity="0" result="BackgroundImageFix"/>
<feColorMatrix in="SourceAlpha" type="matrix" values="0 0 0 0 0 0 0 0 0 0 0 0 0 0 0 0 0 0 127 0" result="hardAlpha"/>
<feOffset dy="4"/>
<feGaussianBlur stdDeviation="2.5"/>
<feComposite in2="hardAlpha" operator="out"/>
<feColorMatrix type="matrix" values="0 0 0 0 0 0 0 0 0 0 0 0 0 0 0 0 0 0 0.05 0"/>
<feBlend mode="normal" in2="BackgroundImageFix" result="effect1_dropShadow"/>
<feBlend mode="normal" in="SourceGraphic" in2="effect1_dropShadow" result="shape"/>
</filter>
<filter id="filter1_d" x="-4" y="-3.97656" width="138" height="138" filterUnits="userSpaceOnUse" color-interpolation-filters="sRGB">
<feFlood flood-opacity="0" result="BackgroundImageFix"/>
<feColorMatrix in="SourceAlpha" type="matrix" values="0 0 0 0 0 0 0 0 0 0 0 0 0 0 0 0 0 0 127 0" result="hardAlpha"/>
<feOffset dy="4"/>
<feGaussianBlur stdDeviation="4.5"/>
<feComposite in2="hardAlpha" operator="out"/>
<feColorMatrix type="matrix" values="0 0 0 0 0 0 0 0 0 0 0 0 0 0 0 0 0 0 0.1 0"/>
<feBlend mode="normal" in2="BackgroundImageFix" result="effect1_dropShadow"/>
<feBlend mode="normal" in="SourceGraphic" in2="effect1_dropShadow" result="shape"/>
</filter>
<clipPath id="clip0">
<rect width="120" height="120" fill="white" transform="translate(5 1.02344)"/>
</clipPath>
<clipPath id="clip1">
<rect width="120" height="120" fill="white" transform="translate(5 1.02344)"/>
</clipPath>
<clipPath id="clip2">
<rect width="120" height="120" fill="white" transform="translate(5 1.02344)"/>
</clipPath>
</defs>
</svg>
