<svg width="130" height="131" viewBox="0 0 130 131" fill="none" xmlns="http://www.w3.org/2000/svg">
<g clip-path="url(#clip0)" filter="url(#filter0_d)">
<path d="M102.5 121.023H27.5C15.0725 121.023 5 110.951 5 98.5234V23.5234C5 11.0959 15.0725 1.02344 27.5 1.02344H102.5C114.927 1.02344 125 11.0959 125 23.5234V98.5234C125 110.951 114.927 121.023 102.5 121.023Z" fill="white"/>
<path d="M75.5488 91.0253C72.1401 91.0253 69.2151 88.5991 68.5926 85.2541L66.0501 71.8216C65.8551 70.7453 64.9176 69.9803 63.8151 69.9803C62.7126 69.9803 61.7751 70.7453 61.5876 71.7991L59.0376 85.2616C58.4076 88.5991 55.4826 91.0253 52.0701 91.0253C48.4213 91.0253 45.3838 88.3028 45.0126 84.6916L44.0151 75.5228C43.6738 72.2453 42.9913 69.0428 41.9826 65.9903L40.0476 59.9716C38.3563 54.7778 37.4976 49.3366 37.4976 43.8053C37.4976 38.0753 42.1738 33.4141 47.9263 33.4141C51.8113 33.4141 55.5688 34.3628 59.6076 36.3166C62.3113 37.6253 64.9026 37.6891 67.5463 36.5003C68.8026 35.9341 70.2838 36.4966 70.8501 37.7603C71.4163 39.0203 70.8538 40.4978 69.5938 41.0641C65.5813 42.8641 61.4901 42.7816 57.4326 40.8166C54.0913 39.2003 51.0426 38.4128 48.1176 38.4128C44.9376 38.4166 42.5001 40.8353 42.5001 43.8091C42.5001 48.8116 43.2763 53.7316 44.8063 58.4341L46.7376 64.4453C47.8476 67.8203 48.6088 71.3753 48.9838 74.9941L49.9851 84.1628C50.0938 85.2316 50.9901 86.0228 52.0701 86.0228C53.0751 86.0228 53.9338 85.3141 54.1138 84.3353L56.6638 70.8878C57.2788 67.4716 60.2863 64.9778 63.8113 64.9778C67.3363 64.9778 70.3438 67.4716 70.9663 70.9103L73.5088 84.3278C73.6926 85.3141 74.5513 86.0228 75.5526 86.0228C76.6326 86.0228 77.5288 85.2278 77.6376 84.1778L78.6388 74.9828C79.0176 71.3678 79.7751 67.8128 80.8926 64.4266L82.8163 58.4416C83.5438 56.2103 84.0913 53.9341 84.4926 51.4628C84.7138 50.1016 85.9776 49.1678 87.3651 49.3966C88.7263 49.6178 89.6526 50.9041 89.4313 52.2653C88.9888 54.9878 88.3813 57.5116 87.5788 59.9791L85.6513 65.9716C84.6388 69.0391 83.9563 72.2416 83.6113 75.5116L82.6138 84.7028C82.2351 88.3028 79.1976 91.0253 75.5488 91.0253V91.0253Z" fill="#1E4388"/>
<path d="M88.6813 56.0697C87.2976 56.0697 86.0001 55.3384 85.3251 54.1084L84.3201 52.2784C83.8813 51.4797 82.7638 51.0972 81.7626 51.3972C78.1288 52.5034 74.8063 50.9284 72.8863 47.1784C72.1438 45.7234 70.7713 44.4297 68.4313 42.9822C67.2801 42.2659 66.4551 41.1297 66.1738 39.8584C65.9038 38.6322 66.1476 37.3534 66.8638 36.2622C66.8826 36.2359 66.8976 36.2097 66.9163 36.1834C69.0538 32.9997 72.8676 31.0234 76.9026 31.0234C85.5051 31.0234 92.5026 37.5109 92.5026 45.4797V52.3722C92.5026 54.0747 91.3626 55.5109 89.6676 55.9459C89.3376 56.0284 89.0076 56.0697 88.6813 56.0697Z" fill="#3C93DB"/>
<g clip-path="url(#clip1)">
<path d="M102.5 121.023H27.5C15.0725 121.023 5 110.951 5 98.5234V23.5234C5 11.0959 15.0725 1.02344 27.5 1.02344H102.5C114.927 1.02344 125 11.0959 125 23.5234V98.5234C125 110.951 114.927 121.023 102.5 121.023Z" fill="white"/>
<path d="M55.6248 73.5312H49.3736C46.9623 73.5312 44.9973 71.57 44.9973 69.155V66.0312C44.9973 61.895 48.3611 58.5312 52.4973 58.5312C56.6336 58.5312 59.9973 61.895 59.9973 66.0312V69.155C60.0011 71.57 58.0361 73.5312 55.6248 73.5312Z" fill="#3C93DB"/>
<path d="M47.6412 84.2462C47.9299 84.9475 48.6162 85.405 49.3737 85.405H50.6224V89.155C50.6224 90.19 51.4624 91.03 52.4974 91.03C53.5324 91.03 54.3724 90.19 54.3724 89.155V85.405H55.6249C56.3824 85.405 57.0687 84.9475 57.3574 84.2462C57.6462 83.545 57.4887 82.7387 56.9487 82.2025L53.8249 79.0787C53.4574 78.7112 52.9812 78.5312 52.4974 78.5312C52.0137 78.5312 51.5374 78.715 51.1699 79.0787L48.0462 82.2025C47.5137 82.7387 47.3524 83.545 47.6412 84.2462Z" fill="#3C93DB"/>
<path d="M95 41.6475C95 38.475 92.8962 35.6813 89.8587 34.7813C73.13 29.8125 56.87 29.8125 40.145 34.7813C37.1 35.6813 35 38.475 35 41.6475V51.03C35 53.79 37.2388 56.0288 39.9988 56.0288H44.315C46.9925 56.0288 49.1638 53.8575 49.1638 51.18V51.1763V49.4475C49.1638 47.5838 50.7837 46.065 52.775 46.065C54.7662 46.065 56.3863 47.58 56.3863 49.4475V51.1763C56.3863 53.8538 58.6025 56.0288 61.3287 56.0288H89.9975C92.7575 56.0288 94.9963 53.79 94.9963 51.03V41.6475H95ZM39.9988 46.1063C41.1013 45.9413 42.3463 46.3125 43.13 47.07C43.7975 47.73 44.1687 48.5738 44.1687 49.4513V51.0338H39.9988V46.1063ZM52.7788 41.0663C50.3938 41.0663 48.2338 42.0188 46.67 43.5488C46.6513 43.53 46.6363 43.5038 46.6138 43.485C44.8925 41.8275 42.4475 41.0213 40.0888 41.1225C40.28 40.4025 40.8275 39.795 41.5775 39.5738C57.56 34.8338 72.4438 34.8338 88.4188 39.5738C89.1613 39.795 89.705 40.3838 89.9038 41.0925C89.5288 41.0738 89.15 41.0663 88.7637 41.0963C86.6562 41.25 84.785 42.195 83.3787 43.6125C81.815 42.0488 79.6363 41.07 77.2213 41.07C74.8325 41.07 72.6725 42.0225 71.1087 43.5563C69.5487 42.0225 67.385 41.07 64.9962 41.07C62.6075 41.07 60.4475 42.0225 58.8838 43.5563C57.3275 42.0188 55.1675 41.0663 52.7788 41.0663V41.0663ZM61.3887 49.4475C61.3887 47.5838 63.0087 46.065 65 46.065C66.9913 46.065 68.6112 47.58 68.6112 49.4475V51.0675L61.3887 51.1763V49.4475ZM73.61 49.4475C73.61 47.5838 75.23 46.065 77.2213 46.065C79.2125 46.065 80.8325 47.58 80.8325 49.4475V49.7288V51.03H73.61V49.4475ZM90.0012 51.03H85.835V49.7288C85.835 47.85 87.3163 46.2113 89.135 46.08C89.4275 46.0613 89.72 46.065 90.0012 46.1063V51.03Z" fill="#1E4388"/>
</g>
</g>
<defs>
<filter id="filter0_d" x="0" y="0.0234375" width="130" height="130" filterUnits="userSpaceOnUse" color-interpolation-filters="sRGB">
<feFlood flood-opacity="0" result="BackgroundImageFix"/>
<feColorMatrix in="SourceAlpha" type="matrix" values="0 0 0 0 0 0 0 0 0 0 0 0 0 0 0 0 0 0 127 0" result="hardAlpha"/>
<feOffset dy="4"/>
<feGaussianBlur stdDeviation="2.5"/>
<feComposite in2="hardAlpha" operator="out"/>
<feColorMatrix type="matrix" values="0 0 0 0 0 0 0 0 0 0 0 0 0 0 0 0 0 0 0.05 0"/>
<feBlend mode="normal" in2="BackgroundImageFix" result="effect1_dropShadow"/>
<feBlend mode="normal" in="SourceGraphic" in2="effect1_dropShadow" result="shape"/>
</filter>
<clipPath id="clip0">
<rect width="120" height="120" fill="white" transform="translate(5 1.02344)"/>
</clipPath>
<clipPath id="clip1">
<rect width="120" height="120" fill="white" transform="translate(5 1.02344)"/>
</clipPath>
</defs>
</svg>
