<svg width="130" height="131" viewBox="0 0 130 131" fill="none" xmlns="http://www.w3.org/2000/svg">
<g clip-path="url(#clip0)" filter="url(#filter0_d)">
<path d="M102.5 121.023H27.5C15.0725 121.023 5 110.951 5 98.5234V23.5234C5 11.0959 15.0725 1.02344 27.5 1.02344H102.5C114.927 1.02344 125 11.0959 125 23.5234V98.5234C125 110.951 114.927 121.023 102.5 121.023Z" fill="white"/>
<path d="M75.5488 91.0253C72.1401 91.0253 69.2151 88.5991 68.5926 85.2541L66.0501 71.8216C65.8551 70.7453 64.9176 69.9803 63.8151 69.9803C62.7126 69.9803 61.7751 70.7453 61.5876 71.7991L59.0376 85.2616C58.4076 88.5991 55.4826 91.0253 52.0701 91.0253C48.4213 91.0253 45.3838 88.3028 45.0126 84.6916L44.0151 75.5228C43.6738 72.2453 42.9913 69.0428 41.9826 65.9903L40.0476 59.9716C38.3563 54.7778 37.4976 49.3366 37.4976 43.8053C37.4976 38.0753 42.1738 33.4141 47.9263 33.4141C51.8113 33.4141 55.5688 34.3628 59.6076 36.3166C62.3113 37.6253 64.9026 37.6891 67.5463 36.5003C68.8026 35.9341 70.2838 36.4966 70.8501 37.7603C71.4163 39.0203 70.8538 40.4978 69.5938 41.0641C65.5813 42.8641 61.4901 42.7816 57.4326 40.8166C54.0913 39.2003 51.0426 38.4128 48.1176 38.4128C44.9376 38.4166 42.5001 40.8353 42.5001 43.8091C42.5001 48.8116 43.2763 53.7316 44.8063 58.4341L46.7376 64.4453C47.8476 67.8203 48.6088 71.3753 48.9838 74.9941L49.9851 84.1628C50.0938 85.2316 50.9901 86.0228 52.0701 86.0228C53.0751 86.0228 53.9338 85.3141 54.1138 84.3353L56.6638 70.8878C57.2788 67.4716 60.2863 64.9778 63.8113 64.9778C67.3363 64.9778 70.3438 67.4716 70.9663 70.9103L73.5088 84.3278C73.6926 85.3141 74.5513 86.0228 75.5526 86.0228C76.6326 86.0228 77.5288 85.2278 77.6376 84.1778L78.6388 74.9828C79.0176 71.3678 79.7751 67.8128 80.8926 64.4266L82.8163 58.4416C83.5438 56.2103 84.0913 53.9341 84.4926 51.4628C84.7138 50.1016 85.9776 49.1678 87.3651 49.3966C88.7263 49.6178 89.6526 50.9041 89.4313 52.2653C88.9888 54.9878 88.3813 57.5116 87.5788 59.9791L85.6513 65.9716C84.6388 69.0391 83.9563 72.2416 83.6113 75.5116L82.6138 84.7028C82.2351 88.3028 79.1976 91.0253 75.5488 91.0253V91.0253Z" fill="#1E4388"/>
<path d="M88.6813 56.0697C87.2976 56.0697 86.0001 55.3384 85.3251 54.1084L84.3201 52.2784C83.8813 51.4797 82.7638 51.0972 81.7626 51.3972C78.1288 52.5034 74.8063 50.9284 72.8863 47.1784C72.1438 45.7234 70.7713 44.4297 68.4313 42.9822C67.2801 42.2659 66.4551 41.1297 66.1738 39.8584C65.9038 38.6322 66.1476 37.3534 66.8638 36.2622C66.8826 36.2359 66.8976 36.2097 66.9163 36.1834C69.0538 32.9997 72.8676 31.0234 76.9026 31.0234C85.5051 31.0234 92.5026 37.5109 92.5026 45.4797V52.3722C92.5026 54.0747 91.3626 55.5109 89.6676 55.9459C89.3376 56.0284 89.0076 56.0697 88.6813 56.0697Z" fill="#3C93DB"/>
<g clip-path="url(#clip1)" filter="url(#filter1_d)">
<path d="M102.5 121.023H27.5C15.0725 121.023 5 110.951 5 98.5234V23.5234C5 11.0959 15.0725 1.02344 27.5 1.02344H102.5C114.927 1.02344 125 11.0959 125 23.5234V98.5234C125 110.951 114.927 121.023 102.5 121.023Z" fill="white"/>
<path d="M75.5488 91.0253C72.1401 91.0253 69.2151 88.5991 68.5926 85.2541L66.0501 71.8216C65.8551 70.7453 64.9176 69.9803 63.8151 69.9803C62.7126 69.9803 61.7751 70.7453 61.5876 71.7991L59.0376 85.2616C58.4076 88.5991 55.4826 91.0253 52.0701 91.0253C48.4213 91.0253 45.3838 88.3028 45.0126 84.6916L44.0151 75.5228C43.6738 72.2453 42.9913 69.0428 41.9826 65.9903L40.0476 59.9716C38.3563 54.7778 37.4976 49.3366 37.4976 43.8053C37.4976 38.0753 42.1738 33.4141 47.9263 33.4141C51.8113 33.4141 55.5688 34.3628 59.6076 36.3166C62.3113 37.6253 64.9026 37.6891 67.5463 36.5003C68.8026 35.9341 70.2838 36.4966 70.8501 37.7603C71.4163 39.0203 70.8538 40.4978 69.5938 41.0641C65.5813 42.8641 61.4901 42.7816 57.4326 40.8166C54.0913 39.2003 51.0426 38.4128 48.1176 38.4128C44.9376 38.4166 42.5001 40.8353 42.5001 43.8091C42.5001 48.8116 43.2763 53.7316 44.8063 58.4341L46.7376 64.4453C47.8476 67.8203 48.6088 71.3753 48.9838 74.9941L49.9851 84.1628C50.0938 85.2316 50.9901 86.0228 52.0701 86.0228C53.0751 86.0228 53.9338 85.3141 54.1138 84.3353L56.6638 70.8878C57.2788 67.4716 60.2863 64.9778 63.8113 64.9778C67.3363 64.9778 70.3438 67.4716 70.9663 70.9103L73.5088 84.3278C73.6926 85.3141 74.5513 86.0228 75.5526 86.0228C76.6326 86.0228 77.5288 85.2278 77.6376 84.1778L78.6388 74.9828C79.0176 71.3678 79.7751 67.8128 80.8926 64.4266L82.8163 58.4416C83.5438 56.2103 84.0913 53.9341 84.4926 51.4628C84.7138 50.1016 85.9776 49.1678 87.3651 49.3966C88.7263 49.6178 89.6526 50.9041 89.4313 52.2653C88.9888 54.9878 88.3813 57.5116 87.5788 59.9791L85.6513 65.9716C84.6388 69.0391 83.9563 72.2416 83.6113 75.5116L82.6138 84.7028C82.2351 88.3028 79.1976 91.0253 75.5488 91.0253V91.0253Z" fill="#1E4388"/>
<path d="M88.6813 56.0697C87.2976 56.0697 86.0001 55.3384 85.3251 54.1084L84.3201 52.2784C83.8813 51.4797 82.7638 51.0972 81.7626 51.3972C78.1288 52.5034 74.8063 50.9284 72.8863 47.1784C72.1438 45.7234 70.7713 44.4297 68.4313 42.9822C67.2801 42.2659 66.4551 41.1297 66.1738 39.8584C65.9038 38.6322 66.1476 37.3534 66.8638 36.2622C66.8826 36.2359 66.8976 36.2097 66.9163 36.1834C69.0538 32.9997 72.8676 31.0234 76.9026 31.0234C85.5051 31.0234 92.5026 37.5109 92.5026 45.4797V52.3722C92.5026 54.0747 91.3626 55.5109 89.6676 55.9459C89.3376 56.0284 89.0076 56.0697 88.6813 56.0697Z" fill="#3C93DB"/>
<g clip-path="url(#clip2)">
<path d="M102.5 121.023H27.5C15.0725 121.023 5 110.951 5 98.5234V23.5234C5 11.0959 15.0725 1.02344 27.5 1.02344H102.5C114.927 1.02344 125 11.0959 125 23.5234V98.5234C125 110.951 114.927 121.023 102.5 121.023Z" fill="white"/>
<path d="M78.7514 58.5234C69.7927 58.5234 62.5027 65.8134 62.5027 74.7722C62.5027 83.7309 69.7889 91.0247 78.7514 91.0247C87.7139 91.0247 95.0002 83.7347 95.0002 74.7759C95.0002 65.8172 87.7102 58.5234 78.7514 58.5234V58.5234ZM86.8814 70.7972L78.1327 80.7984C77.1802 81.8859 75.5077 81.9422 74.4839 80.9184L69.4852 75.9197C68.5102 74.9447 68.5102 73.3622 69.4852 72.3834C70.4602 71.4047 72.0427 71.4084 73.0214 72.3834L76.1302 75.4922L83.1202 67.5009C84.0314 66.4659 85.6102 66.3572 86.6489 67.2647C87.6877 68.1797 87.7927 69.7547 86.8814 70.7972V70.7972Z" fill="#3C93DB"/>
<path d="M72.7512 31.0234C69.4025 31.0234 66.0013 31.8972 62.375 33.6747C59.9 34.9009 57.6012 34.9009 55.1262 33.6747C51.5 31.8972 48.0988 31.0234 44.5738 31.0234C39.3013 31.0234 35 35.3472 35 40.6497C35 45.6259 35.7763 50.5759 37.2763 55.3234L39.0275 60.7234C39.9013 63.4984 40.5012 66.3972 40.8275 69.2997L41.7012 77.5984C42.0762 80.9734 44.8775 83.5234 48.275 83.5234C51.4512 83.5234 54.1738 81.2472 54.7513 78.1234L57.0275 65.9734C57.1775 65.1484 57.9012 64.5222 58.7525 64.5222C59.2025 64.5222 59.6037 64.6984 59.9037 64.9722C60.68 63.4722 61.6288 62.0734 62.7275 60.8209C61.6025 59.9959 60.2262 59.5197 58.7525 59.5197C55.5012 59.5197 52.7037 61.8447 52.1037 65.0697L49.8275 77.1934C49.7038 77.9697 49.0288 78.5172 48.2788 78.5172C47.4538 78.5172 46.7788 77.8909 46.6775 77.0659L45.8037 68.7672C45.455 65.5159 44.78 62.2909 43.7787 59.1934L42.0537 53.7934C40.7037 49.5447 40.0025 45.1197 40.0025 40.6422C40.0025 38.0922 42.0537 36.0184 44.7537 36.0184C47.33 36.0184 50.0038 36.7197 52.9288 38.1672C56.8025 40.0684 60.7025 40.0684 64.58 38.1672C67.505 36.7159 70.1787 36.0184 72.9312 36.0184C75.455 36.0184 77.5062 38.0922 77.5062 40.6422C77.5062 45.1159 76.805 49.5184 75.455 53.7672C76.5313 53.6172 77.63 53.5159 78.755 53.5159C79.43 53.5159 80.0787 53.5422 80.7312 53.5909C81.905 49.3909 82.505 45.0147 82.505 40.6422C82.5012 35.3472 78.2 31.0234 72.7512 31.0234V31.0234Z" fill="#1E4388"/>
</g>
</g>
</g>
<defs>
<filter id="filter0_d" x="0" y="0.0234375" width="130" height="130" filterUnits="userSpaceOnUse" color-interpolation-filters="sRGB">
<feFlood flood-opacity="0" result="BackgroundImageFix"/>
<feColorMatrix in="SourceAlpha" type="matrix" values="0 0 0 0 0 0 0 0 0 0 0 0 0 0 0 0 0 0 127 0" result="hardAlpha"/>
<feOffset dy="4"/>
<feGaussianBlur stdDeviation="2.5"/>
<feComposite in2="hardAlpha" operator="out"/>
<feColorMatrix type="matrix" values="0 0 0 0 0 0 0 0 0 0 0 0 0 0 0 0 0 0 0.05 0"/>
<feBlend mode="normal" in2="BackgroundImageFix" result="effect1_dropShadow"/>
<feBlend mode="normal" in="SourceGraphic" in2="effect1_dropShadow" result="shape"/>
</filter>
<filter id="filter1_d" x="-4" y="-3.97656" width="138" height="138" filterUnits="userSpaceOnUse" color-interpolation-filters="sRGB">
<feFlood flood-opacity="0" result="BackgroundImageFix"/>
<feColorMatrix in="SourceAlpha" type="matrix" values="0 0 0 0 0 0 0 0 0 0 0 0 0 0 0 0 0 0 127 0" result="hardAlpha"/>
<feOffset dy="4"/>
<feGaussianBlur stdDeviation="4.5"/>
<feComposite in2="hardAlpha" operator="out"/>
<feColorMatrix type="matrix" values="0 0 0 0 0 0 0 0 0 0 0 0 0 0 0 0 0 0 0.1 0"/>
<feBlend mode="normal" in2="BackgroundImageFix" result="effect1_dropShadow"/>
<feBlend mode="normal" in="SourceGraphic" in2="effect1_dropShadow" result="shape"/>
</filter>
<clipPath id="clip0">
<rect width="120" height="120" fill="white" transform="translate(5 1.02344)"/>
</clipPath>
<clipPath id="clip1">
<rect width="120" height="120" fill="white" transform="translate(5 1.02344)"/>
</clipPath>
<clipPath id="clip2">
<rect width="120" height="120" fill="white" transform="translate(5 1.02344)"/>
</clipPath>
</defs>
</svg>
