<svg width="168" height="168" viewBox="0 0 168 168" fill="none" xmlns="http://www.w3.org/2000/svg">
<g filter="url(#filter0_d)">
<path d="M121.5 140H46.5C34.0725 140 24 129.927 24 117.5V42.5C24 30.0725 34.0725 20 46.5 20H121.5C133.927 20 144 30.0725 144 42.5V117.5C144 129.927 133.927 140 121.5 140Z" fill="white"/>
<path d="M97.7512 77.498C88.7924 77.498 81.5024 84.788 81.5024 93.7468C81.5024 102.706 88.7887 109.999 97.7512 109.999C106.714 109.999 114 102.709 114 93.7505C114 84.7918 106.71 77.498 97.7512 77.498V77.498ZM105.881 89.7718L97.1324 99.7731C96.1799 100.861 94.5074 100.917 93.4837 99.893L88.4849 94.8943C87.5099 93.9193 87.5099 92.3368 88.4849 91.358C89.4599 90.3793 91.0424 90.383 92.0212 91.358L95.1299 94.4668L102.12 86.4755C103.031 85.4405 104.61 85.3318 105.649 86.2393C106.687 87.1543 106.792 88.7293 105.881 89.7718V89.7718Z" fill="#3C93DB"/>
<path d="M91.7512 50C88.4025 50 85.0013 50.8737 81.375 52.6512C78.9 53.8775 76.6012 53.8775 74.1262 52.6512C70.5 50.8737 67.0988 50 63.5738 50C58.3013 50 54 54.3238 54 59.6263C54 64.6025 54.7763 69.5525 56.2763 74.3L58.0275 79.7C58.9013 82.475 59.5012 85.3738 59.8275 88.2763L60.7012 96.575C61.0762 99.95 63.8775 102.5 67.275 102.5C70.4512 102.5 73.1738 100.224 73.7513 97.1L76.0275 84.95C76.1775 84.125 76.9012 83.4988 77.7525 83.4988C78.2025 83.4988 78.6037 83.675 78.9037 83.9487C79.68 82.4487 80.6288 81.05 81.7275 79.7975C80.6025 78.9725 79.2262 78.4962 77.7525 78.4962C74.5012 78.4962 71.7037 80.8213 71.1037 84.0463L68.8275 96.17C68.7038 96.9463 68.0288 97.4938 67.2788 97.4938C66.4538 97.4938 65.7788 96.8675 65.6775 96.0425L64.8037 87.7438C64.455 84.4925 63.78 81.2675 62.7787 78.17L61.0537 72.77C59.7037 68.5212 59.0025 64.0962 59.0025 59.6187C59.0025 57.0687 61.0537 54.995 63.7537 54.995C66.33 54.995 69.0038 55.6962 71.9288 57.1437C75.8025 59.045 79.7025 59.045 83.58 57.1437C86.505 55.6925 89.1787 54.995 91.9312 54.995C94.455 54.995 96.5062 57.0687 96.5062 59.6187C96.5062 64.0925 95.805 68.495 94.455 72.7437C95.5313 72.5937 96.63 72.4925 97.755 72.4925C98.43 72.4925 99.0787 72.5187 99.7312 72.5675C100.905 68.3675 101.505 63.9912 101.505 59.6187C101.501 54.3237 97.2 50 91.7512 50V50Z" fill="#1E4388"/>
</g>
<defs>
<filter id="filter0_d" x="0" y="0" width="168" height="168" filterUnits="userSpaceOnUse" color-interpolation-filters="sRGB">
<feFlood flood-opacity="0" result="BackgroundImageFix"/>
<feColorMatrix in="SourceAlpha" type="matrix" values="0 0 0 0 0 0 0 0 0 0 0 0 0 0 0 0 0 0 127 0" result="hardAlpha"/>
<feOffset dy="4"/>
<feGaussianBlur stdDeviation="12"/>
<feComposite in2="hardAlpha" operator="out"/>
<feColorMatrix type="matrix" values="0 0 0 0 0 0 0 0 0 0 0 0 0 0 0 0 0 0 0.09 0"/>
<feBlend mode="normal" in2="BackgroundImageFix" result="effect1_dropShadow"/>
<feBlend mode="normal" in="SourceGraphic" in2="effect1_dropShadow" result="shape"/>
</filter>
</defs>
</svg>
