<svg width="24" height="24" viewBox="0 0 24 24" fill="none" xmlns="http://www.w3.org/2000/svg">
<path d="M15.7887 16.795L17.7487 14.835C18.0127 14.5743 18.3467 14.3959 18.7101 14.3213C19.0736 14.2467 19.4509 14.2793 19.7962 14.415L22.1849 15.3688C22.5339 15.5104 22.8331 15.7522 23.0449 16.0636C23.2566 16.3751 23.3715 16.7422 23.3749 17.1188V21.4938C23.3729 21.75 23.319 22.0031 23.2166 22.2379C23.1142 22.4727 22.9653 22.6844 22.7789 22.8602C22.5925 23.0359 22.3725 23.1721 22.1321 23.2606C21.8916 23.3491 21.6358 23.388 21.3799 23.375C4.64118 22.3338 1.26368 8.15879 0.624934 2.73379C0.595283 2.46738 0.622374 2.19772 0.704426 1.94253C0.786478 1.68735 0.921631 1.45243 1.10099 1.25323C1.28035 1.05403 1.49986 0.895065 1.74507 0.786792C1.99028 0.678518 2.25564 0.623391 2.52368 0.625036H6.74993C7.12707 0.626152 7.49524 0.74007 7.8071 0.952137C8.11897 1.1642 8.36025 1.46472 8.49993 1.81504L9.45368 4.20379C9.5939 4.54772 9.62968 4.92535 9.55654 5.2895C9.4834 5.65365 9.30458 5.98817 9.04243 6.25129L7.08243 8.21129C7.08243 8.21129 8.21118 15.85 15.7887 16.795Z" fill="#1E4388"/>
</svg>
