<svg width="198" height="39" viewBox="0 0 198 39" fill="none" xmlns="http://www.w3.org/2000/svg">
<path d="M12.096 5.103V18H10.35V12.132H3.393V18H1.647V5.103H3.393V10.854H10.35V5.103H12.096ZM22.3539 8.883V18H21.3999C21.1719 18 21.0279 17.889 20.9679 17.667L20.8419 16.686C20.4459 17.124 20.0019 17.478 19.5099 17.748C19.0179 18.012 18.4539 18.144 17.8179 18.144C17.3199 18.144 16.8789 18.063 16.4949 17.901C16.1169 17.733 15.7989 17.499 15.5409 17.199C15.2829 16.899 15.0879 16.536 14.9559 16.11C14.8299 15.684 14.7669 15.213 14.7669 14.697V8.883H16.3689V14.697C16.3689 15.387 16.5249 15.921 16.8369 16.299C17.1549 16.677 17.6379 16.866 18.2859 16.866C18.7599 16.866 19.2009 16.755 19.6089 16.533C20.0229 16.305 20.4039 15.993 20.7519 15.597V8.883H22.3539ZM26.406 10.206C26.604 9.984 26.814 9.783 27.036 9.603C27.258 9.423 27.492 9.27 27.738 9.144C27.99 9.012 28.254 8.913 28.53 8.847C28.812 8.775 29.115 8.739 29.439 8.739C29.937 8.739 30.375 8.823 30.753 8.991C31.137 9.153 31.455 9.387 31.707 9.693C31.965 9.993 32.16 10.356 32.292 10.782C32.424 11.208 32.49 11.679 32.49 12.195V18H30.879V12.195C30.879 11.505 30.72 10.971 30.402 10.593C30.09 10.209 29.613 10.017 28.971 10.017C28.497 10.017 28.053 10.131 27.639 10.359C27.231 10.587 26.853 10.896 26.505 11.286V18H24.894V8.883H25.857C26.085 8.883 26.226 8.994 26.28 9.216L26.406 10.206ZM38.1081 13.545C38.4321 13.545 38.7171 13.5 38.9631 13.41C39.2091 13.32 39.4161 13.194 39.5841 13.032C39.7521 12.87 39.8781 12.678 39.9621 12.456C40.0461 12.228 40.0881 11.979 40.0881 11.709C40.0881 11.151 39.9171 10.707 39.5751 10.377C39.2391 10.047 38.7501 9.882 38.1081 9.882C37.4601 9.882 36.9651 10.047 36.6231 10.377C36.2871 10.707 36.1191 11.151 36.1191 11.709C36.1191 11.979 36.1611 12.228 36.2451 12.456C36.3351 12.678 36.4641 12.87 36.6321 13.032C36.8001 13.194 37.0071 13.32 37.2531 13.41C37.4991 13.5 37.7841 13.545 38.1081 13.545ZM40.9971 18.495C40.9971 18.273 40.9341 18.093 40.8081 17.955C40.6821 17.817 40.5111 17.709 40.2951 17.631C40.0851 17.553 39.8391 17.499 39.5571 17.469C39.2751 17.433 38.9751 17.406 38.6571 17.388C38.3451 17.37 38.0271 17.352 37.7031 17.334C37.3791 17.316 37.0671 17.286 36.7671 17.244C36.4311 17.4 36.1551 17.598 35.9391 17.838C35.7291 18.072 35.6241 18.348 35.6241 18.666C35.6241 18.87 35.6751 19.059 35.7771 19.233C35.8851 19.413 36.0471 19.566 36.2631 19.692C36.4791 19.824 36.7491 19.926 37.0731 19.998C37.4031 20.076 37.7901 20.115 38.2341 20.115C38.6661 20.115 39.0531 20.076 39.3951 19.998C39.7371 19.92 40.0251 19.809 40.2591 19.665C40.4991 19.521 40.6821 19.35 40.8081 19.152C40.9341 18.954 40.9971 18.735 40.9971 18.495ZM42.6261 9.243V9.837C42.6261 10.035 42.5001 10.161 42.2481 10.215L41.2131 10.35C41.4171 10.746 41.5191 11.184 41.5191 11.664C41.5191 12.108 41.4321 12.513 41.2581 12.879C41.0901 13.239 40.8561 13.548 40.5561 13.806C40.2561 14.064 39.8961 14.262 39.4761 14.4C39.0561 14.538 38.6001 14.607 38.1081 14.607C37.6821 14.607 37.2801 14.556 36.9021 14.454C36.7101 14.574 36.5631 14.703 36.4611 14.841C36.3591 14.973 36.3081 15.108 36.3081 15.246C36.3081 15.462 36.3951 15.627 36.5691 15.741C36.7491 15.849 36.9831 15.927 37.2711 15.975C37.5591 16.023 37.8861 16.053 38.2521 16.065C38.6241 16.077 39.0021 16.098 39.3861 16.128C39.7761 16.152 40.1541 16.197 40.5201 16.263C40.8921 16.329 41.2221 16.437 41.5101 16.587C41.7981 16.737 42.0291 16.944 42.2031 17.208C42.3831 17.472 42.4731 17.814 42.4731 18.234C42.4731 18.624 42.3741 19.002 42.1761 19.368C41.9841 19.734 41.7051 20.058 41.3391 20.34C40.9731 20.628 40.5231 20.856 39.9891 21.024C39.4611 21.198 38.8641 21.285 38.1981 21.285C37.5321 21.285 36.9501 21.219 36.4521 21.087C35.9541 20.955 35.5401 20.778 35.2101 20.556C34.8801 20.334 34.6311 20.076 34.4631 19.782C34.3011 19.494 34.2201 19.191 34.2201 18.873C34.2201 18.423 34.3611 18.042 34.6431 17.73C34.9251 17.418 35.3121 17.169 35.8041 16.983C35.5341 16.863 35.3181 16.704 35.1561 16.506C35.0001 16.302 34.9221 16.029 34.9221 15.687C34.9221 15.555 34.9461 15.42 34.9941 15.282C35.0421 15.138 35.1141 14.997 35.2101 14.859C35.3121 14.715 35.4351 14.58 35.5791 14.454C35.7231 14.328 35.8911 14.217 36.0831 14.121C35.6331 13.869 35.2821 13.536 35.0301 13.122C34.7781 12.702 34.6521 12.216 34.6521 11.664C34.6521 11.22 34.7361 10.818 34.9041 10.458C35.0781 10.092 35.3181 9.783 35.6241 9.531C35.9301 9.273 36.2931 9.075 36.7131 8.937C37.1391 8.799 37.6041 8.73 38.1081 8.73C38.5041 8.73 38.8731 8.775 39.2151 8.865C39.5571 8.949 39.8691 9.075 40.1511 9.243H42.6261ZM49.2237 13.896C48.4857 13.92 47.8557 13.98 47.3337 14.076C46.8177 14.166 46.3947 14.286 46.0647 14.436C45.7407 14.586 45.5037 14.763 45.3537 14.967C45.2097 15.171 45.1377 15.399 45.1377 15.651C45.1377 15.891 45.1767 16.098 45.2547 16.272C45.3327 16.446 45.4377 16.59 45.5697 16.704C45.7077 16.812 45.8667 16.893 46.0467 16.947C46.2327 16.995 46.4307 17.019 46.6407 17.019C46.9227 17.019 47.1807 16.992 47.4147 16.938C47.6487 16.878 47.8677 16.794 48.0717 16.686C48.2817 16.578 48.4797 16.449 48.6657 16.299C48.8577 16.149 49.0437 15.978 49.2237 15.786V13.896ZM44.0487 10.17C44.5527 9.684 45.0957 9.321 45.6777 9.081C46.2597 8.841 46.9047 8.721 47.6127 8.721C48.1227 8.721 48.5757 8.805 48.9717 8.973C49.3677 9.141 49.7007 9.375 49.9707 9.675C50.2407 9.975 50.4447 10.338 50.5827 10.764C50.7207 11.19 50.7897 11.658 50.7897 12.168V18H50.0787C49.9227 18 49.8027 17.976 49.7187 17.928C49.6347 17.874 49.5687 17.772 49.5207 17.622L49.3407 16.758C49.1007 16.98 48.8667 17.178 48.6387 17.352C48.4107 17.52 48.1707 17.664 47.9187 17.784C47.6667 17.898 47.3967 17.985 47.1087 18.045C46.8267 18.111 46.5117 18.144 46.1637 18.144C45.8097 18.144 45.4767 18.096 45.1647 18C44.8527 17.898 44.5797 17.748 44.3457 17.55C44.1177 17.352 43.9347 17.103 43.7967 16.803C43.6647 16.497 43.5987 16.137 43.5987 15.723C43.5987 15.363 43.6977 15.018 43.8957 14.688C44.0937 14.352 44.4147 14.055 44.8587 13.797C45.3027 13.539 45.8817 13.329 46.5957 13.167C47.3097 12.999 48.1857 12.903 49.2237 12.879V12.168C49.2237 11.46 49.0707 10.926 48.7647 10.566C48.4587 10.2 48.0117 10.017 47.4237 10.017C47.0277 10.017 46.6947 10.068 46.4247 10.17C46.1607 10.266 45.9297 10.377 45.7317 10.503C45.5397 10.623 45.3717 10.734 45.2277 10.836C45.0897 10.932 44.9517 10.98 44.8137 10.98C44.7057 10.98 44.6127 10.953 44.5347 10.899C44.4567 10.839 44.3907 10.767 44.3367 10.683L44.0487 10.17ZM54.7509 10.71C55.0389 10.086 55.3929 9.6 55.8129 9.252C56.2329 8.898 56.7459 8.721 57.3519 8.721C57.5439 8.721 57.7269 8.742 57.9009 8.784C58.0809 8.826 58.2399 8.892 58.3779 8.982L58.2609 10.179C58.2249 10.329 58.1349 10.404 57.9909 10.404C57.9069 10.404 57.7839 10.386 57.6219 10.35C57.4599 10.314 57.2769 10.296 57.0729 10.296C56.7849 10.296 56.5269 10.338 56.2989 10.422C56.0769 10.506 55.8759 10.632 55.6959 10.8C55.5219 10.962 55.3629 11.166 55.2189 11.412C55.0809 11.652 54.9549 11.928 54.8409 12.24V18H53.2299V8.883H54.1479C54.3219 8.883 54.4419 8.916 54.5079 8.982C54.5739 9.048 54.6189 9.162 54.6429 9.324L54.7509 10.71ZM61.4786 8.883V18H59.8766V8.883H61.4786ZM61.8206 6.021C61.8206 6.177 61.7876 6.324 61.7216 6.462C61.6616 6.594 61.5776 6.714 61.4696 6.822C61.3676 6.924 61.2446 7.005 61.1006 7.065C60.9626 7.125 60.8156 7.155 60.6596 7.155C60.5036 7.155 60.3566 7.125 60.2186 7.065C60.0866 7.005 59.9696 6.924 59.8676 6.822C59.7656 6.714 59.6846 6.594 59.6246 6.462C59.5646 6.324 59.5346 6.177 59.5346 6.021C59.5346 5.865 59.5646 5.718 59.6246 5.58C59.6846 5.436 59.7656 5.313 59.8676 5.211C59.9696 5.103 60.0866 5.019 60.2186 4.959C60.3566 4.899 60.5036 4.869 60.6596 4.869C60.8156 4.869 60.9626 4.899 61.1006 4.959C61.2446 5.019 61.3676 5.103 61.4696 5.211C61.5776 5.313 61.6616 5.436 61.7216 5.58C61.7876 5.718 61.8206 5.865 61.8206 6.021ZM69.0518 13.896C68.3138 13.92 67.6838 13.98 67.1618 14.076C66.6458 14.166 66.2228 14.286 65.8928 14.436C65.5688 14.586 65.3318 14.763 65.1818 14.967C65.0378 15.171 64.9658 15.399 64.9658 15.651C64.9658 15.891 65.0048 16.098 65.0828 16.272C65.1608 16.446 65.2658 16.59 65.3978 16.704C65.5358 16.812 65.6948 16.893 65.8748 16.947C66.0608 16.995 66.2588 17.019 66.4688 17.019C66.7508 17.019 67.0088 16.992 67.2428 16.938C67.4768 16.878 67.6958 16.794 67.8998 16.686C68.1098 16.578 68.3078 16.449 68.4938 16.299C68.6858 16.149 68.8718 15.978 69.0518 15.786V13.896ZM63.8768 10.17C64.3808 9.684 64.9238 9.321 65.5058 9.081C66.0878 8.841 66.7328 8.721 67.4408 8.721C67.9508 8.721 68.4038 8.805 68.7998 8.973C69.1958 9.141 69.5288 9.375 69.7988 9.675C70.0688 9.975 70.2728 10.338 70.4108 10.764C70.5488 11.19 70.6178 11.658 70.6178 12.168V18H69.9068C69.7508 18 69.6308 17.976 69.5468 17.928C69.4628 17.874 69.3968 17.772 69.3488 17.622L69.1688 16.758C68.9288 16.98 68.6948 17.178 68.4668 17.352C68.2388 17.52 67.9988 17.664 67.7468 17.784C67.4948 17.898 67.2248 17.985 66.9368 18.045C66.6548 18.111 66.3398 18.144 65.9918 18.144C65.6378 18.144 65.3048 18.096 64.9928 18C64.6808 17.898 64.4078 17.748 64.1738 17.55C63.9458 17.352 63.7628 17.103 63.6248 16.803C63.4928 16.497 63.4268 16.137 63.4268 15.723C63.4268 15.363 63.5258 15.018 63.7238 14.688C63.9218 14.352 64.2428 14.055 64.6868 13.797C65.1308 13.539 65.7098 13.329 66.4238 13.167C67.1378 12.999 68.0138 12.903 69.0518 12.879V12.168C69.0518 11.46 68.8988 10.926 68.5928 10.566C68.2868 10.2 67.8398 10.017 67.2518 10.017C66.8558 10.017 66.5228 10.068 66.2528 10.17C65.9888 10.266 65.7578 10.377 65.5598 10.503C65.3678 10.623 65.1998 10.734 65.0558 10.836C64.9178 10.932 64.7798 10.98 64.6418 10.98C64.5338 10.98 64.4408 10.953 64.3628 10.899C64.2848 10.839 64.2188 10.767 64.1648 10.683L63.8768 10.17ZM74.5701 10.206C74.7681 9.984 74.9781 9.783 75.2001 9.603C75.4221 9.423 75.6561 9.27 75.9021 9.144C76.1541 9.012 76.4181 8.913 76.6941 8.847C76.9761 8.775 77.2791 8.739 77.6031 8.739C78.1011 8.739 78.5391 8.823 78.9171 8.991C79.3011 9.153 79.6191 9.387 79.8711 9.693C80.1291 9.993 80.3241 10.356 80.4561 10.782C80.5881 11.208 80.6541 11.679 80.6541 12.195V18H79.0431V12.195C79.0431 11.505 78.8841 10.971 78.5661 10.593C78.2541 10.209 77.7771 10.017 77.1351 10.017C76.6611 10.017 76.2171 10.131 75.8031 10.359C75.3951 10.587 75.0171 10.896 74.6691 11.286V18H73.0581V8.883H74.0211C74.2491 8.883 74.3901 8.994 74.4441 9.216L74.5701 10.206ZM99.2566 11.556C99.2566 12.522 99.1036 13.401 98.7976 14.193C98.4916 14.985 98.0596 15.663 97.5016 16.227C96.9436 16.791 96.2716 17.229 95.4856 17.541C94.7056 17.847 93.8416 18 92.8936 18H88.0786V5.103H92.8936C93.8416 5.103 94.7056 5.259 95.4856 5.571C96.2716 5.877 96.9436 6.315 97.5016 6.885C98.0596 7.449 98.4916 8.127 98.7976 8.919C99.1036 9.711 99.2566 10.59 99.2566 11.556ZM97.4656 11.556C97.4656 10.764 97.3576 10.056 97.1416 9.432C96.9256 8.808 96.6196 8.28 96.2236 7.848C95.8276 7.416 95.3476 7.086 94.7836 6.858C94.2196 6.63 93.5896 6.516 92.8936 6.516H89.8246V16.587H92.8936C93.5896 16.587 94.2196 16.473 94.7836 16.245C95.3476 16.017 95.8276 15.69 96.2236 15.264C96.6196 14.832 96.9256 14.304 97.1416 13.68C97.3576 13.056 97.4656 12.348 97.4656 11.556ZM107.373 12.447C107.373 12.075 107.319 11.736 107.211 11.43C107.109 11.118 106.956 10.851 106.752 10.629C106.554 10.401 106.311 10.227 106.023 10.107C105.735 9.981 105.408 9.918 105.042 9.918C104.274 9.918 103.665 10.143 103.215 10.593C102.771 11.037 102.495 11.655 102.387 12.447H107.373ZM108.669 16.722C108.471 16.962 108.234 17.172 107.958 17.352C107.682 17.526 107.385 17.67 107.067 17.784C106.755 17.898 106.431 17.982 106.095 18.036C105.759 18.096 105.426 18.126 105.096 18.126C104.466 18.126 103.884 18.021 103.35 17.811C102.822 17.595 102.363 17.283 101.973 16.875C101.589 16.461 101.289 15.951 101.073 15.345C100.857 14.739 100.749 14.043 100.749 13.257C100.749 12.621 100.845 12.027 101.037 11.475C101.235 10.923 101.517 10.446 101.883 10.044C102.249 9.636 102.696 9.318 103.224 9.09C103.752 8.856 104.346 8.739 105.006 8.739C105.552 8.739 106.056 8.832 106.518 9.018C106.986 9.198 107.388 9.462 107.724 9.81C108.066 10.152 108.333 10.578 108.525 11.088C108.717 11.592 108.813 12.168 108.813 12.816C108.813 13.068 108.786 13.236 108.732 13.32C108.678 13.404 108.576 13.446 108.426 13.446H102.333C102.351 14.022 102.429 14.523 102.567 14.949C102.711 15.375 102.909 15.732 103.161 16.02C103.413 16.302 103.713 16.515 104.061 16.659C104.409 16.797 104.799 16.866 105.231 16.866C105.633 16.866 105.978 16.821 106.266 16.731C106.56 16.635 106.812 16.533 107.022 16.425C107.232 16.317 107.406 16.218 107.544 16.128C107.688 16.032 107.811 15.984 107.913 15.984C108.045 15.984 108.147 16.035 108.219 16.137L108.669 16.722ZM112.293 10.206C112.491 9.984 112.701 9.783 112.923 9.603C113.145 9.423 113.379 9.27 113.625 9.144C113.877 9.012 114.141 8.913 114.417 8.847C114.699 8.775 115.002 8.739 115.326 8.739C115.824 8.739 116.262 8.823 116.64 8.991C117.024 9.153 117.342 9.387 117.594 9.693C117.852 9.993 118.047 10.356 118.179 10.782C118.311 11.208 118.377 11.679 118.377 12.195V18H116.766V12.195C116.766 11.505 116.607 10.971 116.289 10.593C115.977 10.209 115.5 10.017 114.858 10.017C114.384 10.017 113.94 10.131 113.526 10.359C113.118 10.587 112.74 10.896 112.392 11.286V18H110.781V8.883H111.744C111.972 8.883 112.113 8.994 112.167 9.216L112.293 10.206ZM123.494 18.144C122.774 18.144 122.219 17.943 121.829 17.541C121.445 17.139 121.253 16.56 121.253 15.804V10.224H120.155C120.059 10.224 119.978 10.197 119.912 10.143C119.846 10.083 119.813 9.993 119.813 9.873V9.234L121.307 9.045L121.676 6.228C121.694 6.138 121.733 6.066 121.793 6.012C121.859 5.952 121.943 5.922 122.045 5.922H122.855V9.063H125.492V10.224H122.855V15.696C122.855 16.08 122.948 16.365 123.134 16.551C123.32 16.737 123.56 16.83 123.854 16.83C124.022 16.83 124.166 16.809 124.286 16.767C124.412 16.719 124.52 16.668 124.61 16.614C124.7 16.56 124.775 16.512 124.835 16.47C124.901 16.422 124.958 16.398 125.006 16.398C125.09 16.398 125.165 16.449 125.231 16.551L125.699 17.316C125.423 17.574 125.09 17.778 124.7 17.928C124.31 18.072 123.908 18.144 123.494 18.144ZM132.087 13.896C131.349 13.92 130.719 13.98 130.197 14.076C129.681 14.166 129.258 14.286 128.928 14.436C128.604 14.586 128.367 14.763 128.217 14.967C128.073 15.171 128.001 15.399 128.001 15.651C128.001 15.891 128.04 16.098 128.118 16.272C128.196 16.446 128.301 16.59 128.433 16.704C128.571 16.812 128.73 16.893 128.91 16.947C129.096 16.995 129.294 17.019 129.504 17.019C129.786 17.019 130.044 16.992 130.278 16.938C130.512 16.878 130.731 16.794 130.935 16.686C131.145 16.578 131.343 16.449 131.529 16.299C131.721 16.149 131.907 15.978 132.087 15.786V13.896ZM126.912 10.17C127.416 9.684 127.959 9.321 128.541 9.081C129.123 8.841 129.768 8.721 130.476 8.721C130.986 8.721 131.439 8.805 131.835 8.973C132.231 9.141 132.564 9.375 132.834 9.675C133.104 9.975 133.308 10.338 133.446 10.764C133.584 11.19 133.653 11.658 133.653 12.168V18H132.942C132.786 18 132.666 17.976 132.582 17.928C132.498 17.874 132.432 17.772 132.384 17.622L132.204 16.758C131.964 16.98 131.73 17.178 131.502 17.352C131.274 17.52 131.034 17.664 130.782 17.784C130.53 17.898 130.26 17.985 129.972 18.045C129.69 18.111 129.375 18.144 129.027 18.144C128.673 18.144 128.34 18.096 128.028 18C127.716 17.898 127.443 17.748 127.209 17.55C126.981 17.352 126.798 17.103 126.66 16.803C126.528 16.497 126.462 16.137 126.462 15.723C126.462 15.363 126.561 15.018 126.759 14.688C126.957 14.352 127.278 14.055 127.722 13.797C128.166 13.539 128.745 13.329 129.459 13.167C130.173 12.999 131.049 12.903 132.087 12.879V12.168C132.087 11.46 131.934 10.926 131.628 10.566C131.322 10.2 130.875 10.017 130.287 10.017C129.891 10.017 129.558 10.068 129.288 10.17C129.024 10.266 128.793 10.377 128.595 10.503C128.403 10.623 128.235 10.734 128.091 10.836C127.953 10.932 127.815 10.98 127.677 10.98C127.569 10.98 127.476 10.953 127.398 10.899C127.32 10.839 127.254 10.767 127.2 10.683L126.912 10.17ZM137.749 4.743V18H136.147V4.743H137.749ZM154.385 15.336C154.481 15.336 154.565 15.375 154.637 15.453L155.33 16.2C154.802 16.812 154.16 17.289 153.404 17.631C152.654 17.973 151.745 18.144 150.677 18.144C149.753 18.144 148.913 17.985 148.157 17.667C147.401 17.343 146.756 16.893 146.222 16.317C145.688 15.735 145.274 15.039 144.98 14.229C144.686 13.419 144.539 12.528 144.539 11.556C144.539 10.584 144.692 9.693 144.998 8.883C145.304 8.073 145.733 7.377 146.285 6.795C146.843 6.213 147.509 5.763 148.283 5.445C149.057 5.121 149.912 4.959 150.848 4.959C151.766 4.959 152.576 5.106 153.278 5.4C153.98 5.694 154.598 6.093 155.132 6.597L154.556 7.398C154.52 7.458 154.472 7.509 154.412 7.551C154.358 7.587 154.283 7.605 154.187 7.605C154.079 7.605 153.947 7.548 153.791 7.434C153.635 7.314 153.431 7.182 153.179 7.038C152.927 6.894 152.612 6.765 152.234 6.651C151.856 6.531 151.391 6.471 150.839 6.471C150.173 6.471 149.564 6.588 149.012 6.822C148.46 7.05 147.983 7.383 147.581 7.821C147.185 8.259 146.876 8.793 146.654 9.423C146.432 10.053 146.321 10.764 146.321 11.556C146.321 12.36 146.435 13.077 146.663 13.707C146.897 14.337 147.212 14.871 147.608 15.309C148.01 15.741 148.481 16.071 149.021 16.299C149.567 16.527 150.155 16.641 150.785 16.641C151.169 16.641 151.514 16.62 151.82 16.578C152.132 16.53 152.417 16.458 152.675 16.362C152.939 16.266 153.182 16.146 153.404 16.002C153.632 15.852 153.857 15.675 154.079 15.471C154.181 15.381 154.283 15.336 154.385 15.336ZM162.902 12.447C162.902 12.075 162.848 11.736 162.74 11.43C162.638 11.118 162.485 10.851 162.281 10.629C162.083 10.401 161.84 10.227 161.552 10.107C161.264 9.981 160.937 9.918 160.571 9.918C159.803 9.918 159.194 10.143 158.744 10.593C158.3 11.037 158.024 11.655 157.916 12.447H162.902ZM164.198 16.722C164 16.962 163.763 17.172 163.487 17.352C163.211 17.526 162.914 17.67 162.596 17.784C162.284 17.898 161.96 17.982 161.624 18.036C161.288 18.096 160.955 18.126 160.625 18.126C159.995 18.126 159.413 18.021 158.879 17.811C158.351 17.595 157.892 17.283 157.502 16.875C157.118 16.461 156.818 15.951 156.602 15.345C156.386 14.739 156.278 14.043 156.278 13.257C156.278 12.621 156.374 12.027 156.566 11.475C156.764 10.923 157.046 10.446 157.412 10.044C157.778 9.636 158.225 9.318 158.753 9.09C159.281 8.856 159.875 8.739 160.535 8.739C161.081 8.739 161.585 8.832 162.047 9.018C162.515 9.198 162.917 9.462 163.253 9.81C163.595 10.152 163.862 10.578 164.054 11.088C164.246 11.592 164.342 12.168 164.342 12.816C164.342 13.068 164.315 13.236 164.261 13.32C164.207 13.404 164.105 13.446 163.955 13.446H157.862C157.88 14.022 157.958 14.523 158.096 14.949C158.24 15.375 158.438 15.732 158.69 16.02C158.942 16.302 159.242 16.515 159.59 16.659C159.938 16.797 160.328 16.866 160.76 16.866C161.162 16.866 161.507 16.821 161.795 16.731C162.089 16.635 162.341 16.533 162.551 16.425C162.761 16.317 162.935 16.218 163.073 16.128C163.217 16.032 163.34 15.984 163.442 15.984C163.574 15.984 163.676 16.035 163.748 16.137L164.198 16.722ZM167.822 10.206C168.02 9.984 168.23 9.783 168.452 9.603C168.674 9.423 168.908 9.27 169.154 9.144C169.406 9.012 169.67 8.913 169.946 8.847C170.228 8.775 170.531 8.739 170.855 8.739C171.353 8.739 171.791 8.823 172.169 8.991C172.553 9.153 172.871 9.387 173.123 9.693C173.381 9.993 173.576 10.356 173.708 10.782C173.84 11.208 173.906 11.679 173.906 12.195V18H172.295V12.195C172.295 11.505 172.136 10.971 171.818 10.593C171.506 10.209 171.029 10.017 170.387 10.017C169.913 10.017 169.469 10.131 169.055 10.359C168.647 10.587 168.269 10.896 167.921 11.286V18H166.31V8.883H167.273C167.501 8.883 167.642 8.994 167.696 9.216L167.822 10.206ZM179.023 18.144C178.303 18.144 177.748 17.943 177.358 17.541C176.974 17.139 176.782 16.56 176.782 15.804V10.224H175.684C175.588 10.224 175.507 10.197 175.441 10.143C175.375 10.083 175.342 9.993 175.342 9.873V9.234L176.836 9.045L177.205 6.228C177.223 6.138 177.262 6.066 177.322 6.012C177.388 5.952 177.472 5.922 177.574 5.922H178.384V9.063H181.021V10.224H178.384V15.696C178.384 16.08 178.477 16.365 178.663 16.551C178.849 16.737 179.089 16.83 179.383 16.83C179.551 16.83 179.695 16.809 179.815 16.767C179.941 16.719 180.049 16.668 180.139 16.614C180.229 16.56 180.304 16.512 180.364 16.47C180.43 16.422 180.487 16.398 180.535 16.398C180.619 16.398 180.694 16.449 180.76 16.551L181.228 17.316C180.952 17.574 180.619 17.778 180.229 17.928C179.839 18.072 179.437 18.144 179.023 18.144ZM184.196 10.71C184.484 10.086 184.838 9.6 185.258 9.252C185.678 8.898 186.191 8.721 186.797 8.721C186.989 8.721 187.172 8.742 187.346 8.784C187.526 8.826 187.685 8.892 187.823 8.982L187.706 10.179C187.67 10.329 187.58 10.404 187.436 10.404C187.352 10.404 187.229 10.386 187.067 10.35C186.905 10.314 186.722 10.296 186.518 10.296C186.23 10.296 185.972 10.338 185.744 10.422C185.522 10.506 185.321 10.632 185.141 10.8C184.967 10.962 184.808 11.166 184.664 11.412C184.526 11.652 184.4 11.928 184.286 12.24V18H182.675V8.883H183.593C183.767 8.883 183.887 8.916 183.953 8.982C184.019 9.048 184.064 9.162 184.088 9.324L184.196 10.71ZM194.965 12.447C194.965 12.075 194.911 11.736 194.803 11.43C194.701 11.118 194.548 10.851 194.344 10.629C194.146 10.401 193.903 10.227 193.615 10.107C193.327 9.981 193 9.918 192.634 9.918C191.866 9.918 191.257 10.143 190.807 10.593C190.363 11.037 190.087 11.655 189.979 12.447H194.965ZM196.261 16.722C196.063 16.962 195.826 17.172 195.55 17.352C195.274 17.526 194.977 17.67 194.659 17.784C194.347 17.898 194.023 17.982 193.687 18.036C193.351 18.096 193.018 18.126 192.688 18.126C192.058 18.126 191.476 18.021 190.942 17.811C190.414 17.595 189.955 17.283 189.565 16.875C189.181 16.461 188.881 15.951 188.665 15.345C188.449 14.739 188.341 14.043 188.341 13.257C188.341 12.621 188.437 12.027 188.629 11.475C188.827 10.923 189.109 10.446 189.475 10.044C189.841 9.636 190.288 9.318 190.816 9.09C191.344 8.856 191.938 8.739 192.598 8.739C193.144 8.739 193.648 8.832 194.11 9.018C194.578 9.198 194.98 9.462 195.316 9.81C195.658 10.152 195.925 10.578 196.117 11.088C196.309 11.592 196.405 12.168 196.405 12.816C196.405 13.068 196.378 13.236 196.324 13.32C196.27 13.404 196.168 13.446 196.018 13.446H189.925C189.943 14.022 190.021 14.523 190.159 14.949C190.303 15.375 190.501 15.732 190.753 16.02C191.005 16.302 191.305 16.515 191.653 16.659C192.001 16.797 192.391 16.866 192.823 16.866C193.225 16.866 193.57 16.821 193.858 16.731C194.152 16.635 194.404 16.533 194.614 16.425C194.824 16.317 194.998 16.218 195.136 16.128C195.28 16.032 195.403 15.984 195.505 15.984C195.637 15.984 195.739 16.035 195.811 16.137L196.261 16.722Z" fill="#3C93DB"/>
<path d="M61.478 36.1035V37H57.0065V29.1185H58.068V36.1035H61.478ZM64.3769 31.3405C64.7839 31.3405 65.1506 31.4083 65.4769 31.544C65.8033 31.6797 66.0819 31.8722 66.3129 32.1215C66.5439 32.3708 66.7199 32.6733 66.8409 33.029C66.9656 33.381 67.0279 33.7752 67.0279 34.2115C67.0279 34.6515 66.9656 35.0475 66.8409 35.3995C66.7199 35.7515 66.5439 36.0522 66.3129 36.3015C66.0819 36.5508 65.8033 36.7433 65.4769 36.879C65.1506 37.011 64.7839 37.077 64.3769 37.077C63.9663 37.077 63.5959 37.011 63.2659 36.879C62.9396 36.7433 62.6609 36.5508 62.4299 36.3015C62.1989 36.0522 62.0211 35.7515 61.8964 35.3995C61.7754 35.0475 61.7149 34.6515 61.7149 34.2115C61.7149 33.7752 61.7754 33.381 61.8964 33.029C62.0211 32.6733 62.1989 32.3708 62.4299 32.1215C62.6609 31.8722 62.9396 31.6797 63.2659 31.544C63.5959 31.4083 63.9663 31.3405 64.3769 31.3405ZM64.3769 36.3125C64.9269 36.3125 65.3376 36.1292 65.6089 35.7625C65.8803 35.3922 66.0159 34.877 66.0159 34.217C66.0159 33.5533 65.8803 33.0363 65.6089 32.666C65.3376 32.2957 64.9269 32.1105 64.3769 32.1105C64.0983 32.1105 63.8544 32.1582 63.6454 32.2535C63.4401 32.3488 63.2678 32.4863 63.1284 32.666C62.9928 32.8457 62.8901 33.0675 62.8204 33.3315C62.7544 33.5918 62.7214 33.887 62.7214 34.217C62.7214 34.877 62.8571 35.3922 63.1284 35.7625C63.4034 36.1292 63.8196 36.3125 64.3769 36.3125ZM69.1936 32.237C69.3146 32.1013 69.443 31.9785 69.5786 31.8685C69.7143 31.7585 69.8573 31.665 70.0076 31.588C70.1616 31.5073 70.323 31.4468 70.4916 31.4065C70.664 31.3625 70.8491 31.3405 71.0471 31.3405C71.3515 31.3405 71.6191 31.3918 71.8501 31.4945C72.0848 31.5935 72.2791 31.7365 72.4331 31.9235C72.5908 32.1068 72.71 32.3287 72.7906 32.589C72.8713 32.8493 72.9116 33.1372 72.9116 33.4525V37H71.9271V33.4525C71.9271 33.0308 71.83 32.7045 71.6356 32.4735C71.445 32.2388 71.1535 32.1215 70.7611 32.1215C70.4715 32.1215 70.2001 32.1912 69.9471 32.3305C69.6978 32.4698 69.4668 32.6587 69.2541 32.897V37H68.2696V31.4285H68.8581C68.9975 31.4285 69.0836 31.4963 69.1166 31.632L69.1936 32.237ZM78.0334 32.754C77.8501 32.5083 77.6521 32.3378 77.4394 32.2425C77.2268 32.1435 76.9884 32.094 76.7244 32.094C76.2074 32.094 75.8096 32.2792 75.5309 32.6495C75.2523 33.0198 75.1129 33.5478 75.1129 34.2335C75.1129 34.5965 75.1441 34.9082 75.2064 35.1685C75.2688 35.4252 75.3604 35.6378 75.4814 35.8065C75.6024 35.9715 75.7509 36.0925 75.9269 36.1695C76.1029 36.2465 76.3028 36.285 76.5264 36.285C76.8491 36.285 77.1296 36.2117 77.3679 36.065C77.6099 35.9183 77.8318 35.7112 78.0334 35.4435V32.754ZM79.0124 28.8985V37H78.4294C78.2901 37 78.2021 36.9322 78.1654 36.7965L78.0774 36.12C77.8391 36.406 77.5678 36.637 77.2634 36.813C76.9591 36.989 76.6071 37.077 76.2074 37.077C75.8884 37.077 75.5988 37.0165 75.3384 36.8955C75.0781 36.7708 74.8563 36.5893 74.6729 36.351C74.4896 36.1127 74.3484 35.8157 74.2494 35.46C74.1504 35.1043 74.1009 34.6955 74.1009 34.2335C74.1009 33.8228 74.1559 33.4415 74.2659 33.0895C74.3759 32.7338 74.5336 32.4258 74.7389 32.1655C74.9443 31.9052 75.1954 31.7017 75.4924 31.555C75.7931 31.4047 76.1304 31.3295 76.5044 31.3295C76.8454 31.3295 77.1369 31.3882 77.3789 31.5055C77.6246 31.6192 77.8428 31.7787 78.0334 31.984V28.8985H79.0124ZM82.9072 31.3405C83.3142 31.3405 83.6809 31.4083 84.0072 31.544C84.3335 31.6797 84.6122 31.8722 84.8432 32.1215C85.0742 32.3708 85.2502 32.6733 85.3712 33.029C85.4959 33.381 85.5582 33.7752 85.5582 34.2115C85.5582 34.6515 85.4959 35.0475 85.3712 35.3995C85.2502 35.7515 85.0742 36.0522 84.8432 36.3015C84.6122 36.5508 84.3335 36.7433 84.0072 36.879C83.6809 37.011 83.3142 37.077 82.9072 37.077C82.4965 37.077 82.1262 37.011 81.7962 36.879C81.4699 36.7433 81.1912 36.5508 80.9602 36.3015C80.7292 36.0522 80.5514 35.7515 80.4267 35.3995C80.3057 35.0475 80.2452 34.6515 80.2452 34.2115C80.2452 33.7752 80.3057 33.381 80.4267 33.029C80.5514 32.6733 80.7292 32.3708 80.9602 32.1215C81.1912 31.8722 81.4699 31.6797 81.7962 31.544C82.1262 31.4083 82.4965 31.3405 82.9072 31.3405ZM82.9072 36.3125C83.4572 36.3125 83.8679 36.1292 84.1392 35.7625C84.4105 35.3922 84.5462 34.877 84.5462 34.217C84.5462 33.5533 84.4105 33.0363 84.1392 32.666C83.8679 32.2957 83.4572 32.1105 82.9072 32.1105C82.6285 32.1105 82.3847 32.1582 82.1757 32.2535C81.9704 32.3488 81.798 32.4863 81.6587 32.666C81.523 32.8457 81.4204 33.0675 81.3507 33.3315C81.2847 33.5918 81.2517 33.887 81.2517 34.217C81.2517 34.877 81.3874 35.3922 81.6587 35.7625C81.9337 36.1292 82.3499 36.3125 82.9072 36.3125ZM87.7239 32.237C87.8449 32.1013 87.9732 31.9785 88.1089 31.8685C88.2446 31.7585 88.3876 31.665 88.5379 31.588C88.6919 31.5073 88.8532 31.4468 89.0219 31.4065C89.1942 31.3625 89.3794 31.3405 89.5774 31.3405C89.8817 31.3405 90.1494 31.3918 90.3804 31.4945C90.6151 31.5935 90.8094 31.7365 90.9634 31.9235C91.1211 32.1068 91.2402 32.3287 91.3209 32.589C91.4016 32.8493 91.4419 33.1372 91.4419 33.4525V37H90.4574V33.4525C90.4574 33.0308 90.3602 32.7045 90.1659 32.4735C89.9752 32.2388 89.6837 32.1215 89.2914 32.1215C89.0017 32.1215 88.7304 32.1912 88.4774 32.3305C88.2281 32.4698 87.9971 32.6587 87.7844 32.897V37H86.7999V31.4285H87.3884C87.5277 31.4285 87.6139 31.4963 87.6469 31.632L87.7239 32.237ZM97.6292 33.117C97.2405 33.3223 96.9472 33.5717 96.7492 33.865C96.5548 34.1583 96.4577 34.4773 96.4577 34.822C96.4577 35.0603 96.5017 35.2712 96.5897 35.4545C96.6777 35.6342 96.7932 35.7863 96.9362 35.911C97.0792 36.0357 97.2423 36.131 97.4257 36.197C97.609 36.2593 97.796 36.2905 97.9867 36.2905C98.3973 36.2905 98.7658 36.2153 99.0922 36.065C99.4222 35.9147 99.71 35.713 99.9557 35.46L97.6292 33.117ZM102.711 37H101.76C101.653 37 101.567 36.9872 101.501 36.9615C101.435 36.9358 101.364 36.8827 101.287 36.802L100.489 35.999C100.144 36.3327 99.7467 36.5985 99.2957 36.7965C98.8483 36.9908 98.3552 37.088 97.8162 37.088C97.5228 37.088 97.235 37.0385 96.9527 36.9395C96.674 36.8405 96.4228 36.6975 96.1992 36.5105C95.9755 36.3198 95.7958 36.0888 95.6602 35.8175C95.5245 35.5462 95.4567 35.24 95.4567 34.899C95.4567 34.6423 95.4988 34.4003 95.5832 34.173C95.6712 33.942 95.7922 33.7293 95.9462 33.535C96.1002 33.3407 96.2817 33.1665 96.4907 33.0125C96.6997 32.8585 96.9288 32.7265 97.1782 32.6165C96.9545 32.3305 96.7895 32.0555 96.6832 31.7915C96.5768 31.5238 96.5237 31.247 96.5237 30.961C96.5237 30.6933 96.5713 30.4422 96.6667 30.2075C96.7657 29.9728 96.9068 29.7693 97.0902 29.597C97.2735 29.421 97.4953 29.2835 97.7557 29.1845C98.0197 29.0818 98.3148 29.0305 98.6412 29.0305C98.9308 29.0305 99.1948 29.0782 99.4332 29.1735C99.6715 29.2652 99.8768 29.388 100.049 29.542C100.221 29.696 100.357 29.8757 100.456 30.081C100.559 30.2827 100.617 30.4935 100.632 30.7135L100.022 30.8345C99.9007 30.8638 99.8108 30.807 99.7522 30.664C99.7265 30.5687 99.6843 30.4697 99.6257 30.367C99.5707 30.2643 99.4973 30.1708 99.4057 30.0865C99.3177 30.0022 99.2095 29.9325 99.0812 29.8775C98.9565 29.8225 98.8098 29.795 98.6412 29.795C98.4578 29.795 98.291 29.8243 98.1407 29.883C97.994 29.9417 97.8675 30.0242 97.7612 30.1305C97.6585 30.2332 97.5797 30.356 97.5247 30.499C97.4697 30.6383 97.4422 30.7905 97.4422 30.9555C97.4422 31.0838 97.4568 31.2067 97.4862 31.324C97.5155 31.4413 97.5613 31.5605 97.6237 31.6815C97.6897 31.8025 97.7722 31.9253 97.8712 32.05C97.9702 32.1747 98.0893 32.3067 98.2287 32.446L100.495 34.7505C100.634 34.5012 100.746 34.2427 100.83 33.975C100.914 33.7037 100.969 33.4342 100.995 33.1665C101.002 33.0968 101.024 33.0418 101.061 33.0015C101.098 32.9612 101.149 32.941 101.215 32.941H101.815C101.811 33.3627 101.745 33.777 101.617 34.184C101.488 34.5873 101.303 34.9668 101.061 35.3225L102.711 37ZM109.391 36.153C109.695 36.153 109.958 36.1182 110.178 36.0485C110.398 35.9788 110.577 35.8817 110.717 35.757C110.86 35.6287 110.964 35.4783 111.03 35.306C111.096 35.13 111.129 34.9375 111.129 34.7285C111.129 34.3215 110.984 34.0007 110.695 33.766C110.405 33.5277 109.97 33.4085 109.391 33.4085H107.686V36.153H109.391ZM107.686 29.96V32.6495H109.094C109.395 32.6495 109.655 32.6165 109.875 32.5505C110.099 32.4845 110.282 32.3928 110.425 32.2755C110.572 32.1582 110.68 32.017 110.75 31.852C110.819 31.6833 110.854 31.5 110.854 31.302C110.854 30.8363 110.715 30.4972 110.436 30.2845C110.157 30.0682 109.725 29.96 109.138 29.96H107.686ZM109.138 29.1185C109.622 29.1185 110.038 29.1662 110.387 29.2615C110.739 29.3568 111.026 29.4925 111.25 29.6685C111.477 29.8445 111.644 30.0608 111.751 30.3175C111.857 30.5705 111.91 30.8565 111.91 31.1755C111.91 31.3698 111.879 31.5568 111.817 31.7365C111.758 31.9125 111.668 32.0775 111.547 32.2315C111.426 32.3855 111.272 32.5248 111.085 32.6495C110.902 32.7705 110.685 32.8695 110.436 32.9465C111.015 33.0565 111.45 33.2637 111.74 33.568C112.033 33.8687 112.18 34.2647 112.18 34.756C112.18 35.0897 112.117 35.394 111.993 35.669C111.872 35.944 111.692 36.1805 111.454 36.3785C111.219 36.5765 110.929 36.7305 110.585 36.8405C110.24 36.9468 109.848 37 109.408 37H106.625V29.1185H109.138ZM117.968 31.4285V37H117.385C117.246 37 117.158 36.9322 117.121 36.7965L117.044 36.197C116.802 36.4647 116.531 36.681 116.23 36.846C115.93 37.0073 115.585 37.088 115.196 37.088C114.892 37.088 114.622 37.0385 114.388 36.9395C114.157 36.8368 113.962 36.6938 113.805 36.5105C113.647 36.3272 113.528 36.1053 113.447 35.845C113.37 35.5847 113.332 35.2968 113.332 34.9815V31.4285H114.311V34.9815C114.311 35.4032 114.406 35.7295 114.597 35.9605C114.791 36.1915 115.086 36.307 115.482 36.307C115.772 36.307 116.041 36.2392 116.291 36.1035C116.544 35.9642 116.777 35.7735 116.989 35.5315V31.4285H117.968ZM123.151 32.754C122.967 32.5083 122.769 32.3378 122.557 32.2425C122.344 32.1435 122.106 32.094 121.842 32.094C121.325 32.094 120.927 32.2792 120.648 32.6495C120.369 33.0198 120.23 33.5478 120.23 34.2335C120.23 34.5965 120.261 34.9082 120.324 35.1685C120.386 35.4252 120.478 35.6378 120.599 35.8065C120.72 35.9715 120.868 36.0925 121.044 36.1695C121.22 36.2465 121.42 36.285 121.644 36.285C121.966 36.285 122.247 36.2117 122.485 36.065C122.727 35.9183 122.949 35.7112 123.151 35.4435V32.754ZM124.13 28.8985V37H123.547C123.407 37 123.319 36.9322 123.283 36.7965L123.195 36.12C122.956 36.406 122.685 36.637 122.381 36.813C122.076 36.989 121.724 37.077 121.325 37.077C121.006 37.077 120.716 37.0165 120.456 36.8955C120.195 36.7708 119.973 36.5893 119.79 36.351C119.607 36.1127 119.466 35.8157 119.367 35.46C119.268 35.1043 119.218 34.6955 119.218 34.2335C119.218 33.8228 119.273 33.4415 119.383 33.0895C119.493 32.7338 119.651 32.4258 119.856 32.1655C120.061 31.9052 120.313 31.7017 120.61 31.555C120.91 31.4047 121.248 31.3295 121.622 31.3295C121.963 31.3295 122.254 31.3882 122.496 31.5055C122.742 31.6192 122.96 31.7787 123.151 31.984V28.8985H124.13ZM128.695 34.492C128.244 34.5067 127.859 34.5433 127.54 34.602C127.225 34.657 126.967 34.7303 126.765 34.822C126.567 34.9137 126.422 35.0218 126.33 35.1465C126.242 35.2712 126.198 35.4105 126.198 35.5645C126.198 35.7112 126.222 35.8377 126.27 35.944C126.318 36.0503 126.382 36.1383 126.462 36.208C126.547 36.274 126.644 36.3235 126.754 36.3565C126.868 36.3858 126.989 36.4005 127.117 36.4005C127.289 36.4005 127.447 36.384 127.59 36.351C127.733 36.3143 127.867 36.263 127.991 36.197C128.12 36.131 128.241 36.0522 128.354 35.9605C128.472 35.8688 128.585 35.7643 128.695 35.647V34.492ZM125.533 32.215C125.841 31.918 126.173 31.6962 126.528 31.5495C126.884 31.4028 127.278 31.3295 127.711 31.3295C128.023 31.3295 128.299 31.3808 128.541 31.4835C128.783 31.5862 128.987 31.7292 129.152 31.9125C129.317 32.0958 129.442 32.3177 129.526 32.578C129.61 32.8383 129.652 33.1243 129.652 33.436V37H129.218C129.123 37 129.049 36.9853 128.998 36.956C128.947 36.923 128.906 36.8607 128.877 36.769L128.767 36.241C128.62 36.3767 128.477 36.4977 128.338 36.604C128.199 36.7067 128.052 36.7947 127.898 36.868C127.744 36.9377 127.579 36.9908 127.403 37.0275C127.231 37.0678 127.038 37.088 126.825 37.088C126.609 37.088 126.406 37.0587 126.215 37C126.024 36.9377 125.857 36.846 125.714 36.725C125.575 36.604 125.463 36.4518 125.379 36.2685C125.298 36.0815 125.258 35.8615 125.258 35.6085C125.258 35.3885 125.318 35.1777 125.439 34.976C125.56 34.7707 125.757 34.5892 126.028 34.4315C126.299 34.2738 126.653 34.1455 127.089 34.0465C127.526 33.9438 128.061 33.8852 128.695 33.8705V33.436C128.695 33.0033 128.602 32.677 128.415 32.457C128.228 32.2333 127.955 32.1215 127.595 32.1215C127.353 32.1215 127.15 32.1527 126.985 32.215C126.824 32.2737 126.682 32.3415 126.561 32.4185C126.444 32.4918 126.341 32.5597 126.253 32.622C126.169 32.6807 126.085 32.71 126 32.71C125.934 32.71 125.878 32.6935 125.83 32.6605C125.782 32.6238 125.742 32.5798 125.709 32.5285L125.533 32.215ZM132.128 35.658C132.308 35.9 132.504 36.0705 132.717 36.1695C132.929 36.2685 133.168 36.318 133.432 36.318C133.952 36.318 134.352 36.1328 134.631 35.7625C134.909 35.3922 135.049 34.8642 135.049 34.1785C135.049 33.8155 135.016 33.5038 134.95 33.2435C134.887 32.9832 134.796 32.7705 134.675 32.6055C134.554 32.4368 134.405 32.314 134.229 32.237C134.053 32.16 133.853 32.1215 133.63 32.1215C133.311 32.1215 133.03 32.1948 132.788 32.3415C132.55 32.4882 132.33 32.6953 132.128 32.963V35.658ZM132.079 32.292C132.313 32.0023 132.585 31.7695 132.893 31.5935C133.201 31.4175 133.553 31.3295 133.949 31.3295C134.271 31.3295 134.563 31.3918 134.823 31.5165C135.083 31.6375 135.305 31.819 135.489 32.061C135.672 32.2993 135.813 32.5963 135.912 32.952C136.011 33.3077 136.061 33.7165 136.061 34.1785C136.061 34.5892 136.006 34.9723 135.896 35.328C135.786 35.68 135.626 35.9862 135.417 36.2465C135.212 36.5032 134.959 36.7067 134.658 36.857C134.361 37.0037 134.026 37.077 133.652 37.077C133.311 37.077 133.017 37.0202 132.772 36.9065C132.53 36.7892 132.315 36.6278 132.128 36.4225V38.8865H131.144V31.4285H131.732C131.871 31.4285 131.958 31.4963 131.991 31.632L132.079 32.292ZM141.039 33.6065C141.039 33.3792 141.006 33.172 140.94 32.985C140.877 32.7943 140.784 32.6312 140.659 32.4955C140.538 32.3562 140.39 32.2498 140.214 32.1765C140.038 32.0995 139.838 32.061 139.614 32.061C139.145 32.061 138.773 32.1985 138.498 32.4735C138.226 32.7448 138.058 33.1225 137.992 33.6065H141.039ZM141.831 36.219C141.71 36.3657 141.565 36.494 141.396 36.604C141.228 36.7103 141.046 36.7983 140.852 36.868C140.661 36.9377 140.463 36.989 140.258 37.022C140.052 37.0587 139.849 37.077 139.647 37.077C139.262 37.077 138.907 37.0128 138.58 36.8845C138.258 36.7525 137.977 36.5618 137.739 36.3125C137.504 36.0595 137.321 35.7478 137.189 35.3775C137.057 35.0072 136.991 34.5818 136.991 34.1015C136.991 33.7128 137.049 33.3498 137.167 33.0125C137.288 32.6752 137.46 32.3837 137.684 32.138C137.907 31.8887 138.181 31.6943 138.503 31.555C138.826 31.412 139.189 31.3405 139.592 31.3405C139.926 31.3405 140.234 31.3973 140.516 31.511C140.802 31.621 141.048 31.7823 141.253 31.995C141.462 32.204 141.625 32.4643 141.743 32.776C141.86 33.084 141.919 33.436 141.919 33.832C141.919 33.986 141.902 34.0887 141.869 34.14C141.836 34.1913 141.774 34.217 141.682 34.217H137.959C137.97 34.569 138.017 34.8752 138.102 35.1355C138.19 35.3958 138.311 35.614 138.465 35.79C138.619 35.9623 138.802 36.0925 139.015 36.1805C139.227 36.2648 139.466 36.307 139.73 36.307C139.975 36.307 140.186 36.2795 140.362 36.2245C140.542 36.1658 140.696 36.1035 140.824 36.0375C140.953 35.9715 141.059 35.911 141.143 35.856C141.231 35.7973 141.306 35.768 141.369 35.768C141.449 35.768 141.512 35.7992 141.556 35.8615L141.831 36.219ZM146.366 32.347C146.322 32.4277 146.254 32.468 146.163 32.468C146.108 32.468 146.045 32.4478 145.976 32.4075C145.906 32.3672 145.82 32.3232 145.717 32.2755C145.618 32.2242 145.499 32.1783 145.36 32.138C145.22 32.094 145.055 32.072 144.865 32.072C144.7 32.072 144.551 32.094 144.419 32.138C144.287 32.1783 144.174 32.2352 144.078 32.3085C143.987 32.3818 143.915 32.468 143.864 32.567C143.816 32.6623 143.792 32.7668 143.792 32.8805C143.792 33.0235 143.833 33.1427 143.913 33.238C143.998 33.3333 144.108 33.4158 144.243 33.4855C144.379 33.5552 144.533 33.6175 144.705 33.6725C144.878 33.7238 145.054 33.7807 145.233 33.843C145.417 33.9017 145.594 33.9677 145.767 34.041C145.939 34.1143 146.093 34.206 146.229 34.316C146.364 34.426 146.473 34.5617 146.553 34.723C146.638 34.8807 146.68 35.0713 146.68 35.295C146.68 35.5517 146.634 35.79 146.542 36.01C146.451 36.2263 146.315 36.4152 146.135 36.5765C145.956 36.7342 145.736 36.8588 145.475 36.9505C145.215 37.0422 144.914 37.088 144.573 37.088C144.185 37.088 143.833 37.0257 143.517 36.901C143.202 36.7727 142.934 36.6095 142.714 36.4115L142.945 36.0375C142.975 35.9898 143.009 35.9532 143.05 35.9275C143.09 35.9018 143.141 35.889 143.204 35.889C143.27 35.889 143.339 35.9147 143.413 35.966C143.486 36.0173 143.574 36.0742 143.677 36.1365C143.783 36.1988 143.911 36.2557 144.062 36.307C144.212 36.3583 144.399 36.384 144.623 36.384C144.813 36.384 144.98 36.3602 145.123 36.3125C145.266 36.2612 145.385 36.1933 145.481 36.109C145.576 36.0247 145.646 35.9275 145.69 35.8175C145.737 35.7075 145.761 35.5902 145.761 35.4655C145.761 35.3115 145.719 35.185 145.635 35.086C145.554 34.9833 145.446 34.8972 145.31 34.8275C145.175 34.7542 145.019 34.6918 144.843 34.6405C144.67 34.5855 144.493 34.5287 144.309 34.47C144.13 34.4113 143.952 34.3453 143.776 34.272C143.603 34.195 143.449 34.0997 143.314 33.986C143.178 33.8723 143.068 33.733 142.984 33.568C142.903 33.3993 142.863 33.1958 142.863 32.9575C142.863 32.7448 142.907 32.5413 142.995 32.347C143.083 32.149 143.211 31.9767 143.38 31.83C143.548 31.6797 143.756 31.5605 144.001 31.4725C144.247 31.3845 144.527 31.3405 144.843 31.3405C145.209 31.3405 145.538 31.3992 145.827 31.5165C146.121 31.6302 146.374 31.7878 146.586 31.9895L146.366 32.347ZM149.59 37.088C149.15 37.088 148.811 36.9652 148.573 36.7195C148.338 36.4738 148.221 36.12 148.221 35.658V32.248H147.55C147.491 32.248 147.442 32.2315 147.401 32.1985C147.361 32.1618 147.341 32.1068 147.341 32.0335V31.643L148.254 31.5275L148.479 29.806C148.49 29.751 148.514 29.707 148.551 29.674C148.591 29.6373 148.643 29.619 148.705 29.619H149.2V31.5385H150.811V32.248H149.2V35.592C149.2 35.8267 149.257 36.0008 149.37 36.1145C149.484 36.2282 149.631 36.285 149.81 36.285C149.913 36.285 150.001 36.2722 150.074 36.2465C150.151 36.2172 150.217 36.186 150.272 36.153C150.327 36.12 150.373 36.0907 150.41 36.065C150.45 36.0357 150.485 36.021 150.514 36.021C150.566 36.021 150.612 36.0522 150.652 36.1145L150.938 36.582C150.769 36.7397 150.566 36.8643 150.327 36.956C150.089 37.044 149.843 37.088 149.59 37.088Z" fill="#3C93DB"/>
<path d="M43 24H164.5" stroke="#3C93DB"/>
</svg>
