<svg width="168" height="168" viewBox="0 0 168 168" fill="none" xmlns="http://www.w3.org/2000/svg">
<g filter="url(#filter0_d)">
<path d="M121.5 140H46.5C34.0725 140 24 129.927 24 117.5V42.5C24 30.0725 34.0725 20 46.5 20H121.5C133.927 20 144 30.0725 144 42.5V117.5C144 129.927 133.927 140 121.5 140Z" fill="white"/>
<path d="M90.4463 80C88.35 80 86.535 78.59 86.1338 76.6437L84.7313 68.69C84.6975 68.5325 84.4013 68.3037 84 68.3037C83.5988 68.3037 83.3025 68.5325 83.2575 68.7425L81.8775 76.5875C81.465 78.59 79.65 80 77.5538 80C75.3113 80 73.4363 78.4137 73.185 76.31L72.645 71.7425C72.615 71.5063 72.3675 70.205 71.07 64.2087C70.5263 61.6887 70.2488 59.1012 70.2488 56.5175C70.2488 52.925 73.1663 50 76.7475 50C77.9475 50 79.125 50.3263 80.1563 50.9488C82.53 52.3813 85.4738 52.3812 87.84 50.9525C88.875 50.3262 90.0563 50 91.2525 50C94.8338 50 97.7475 52.925 97.7475 56.5175C97.7475 59.1012 97.47 61.6925 96.9263 64.2125C95.6288 70.205 95.385 71.5063 95.3475 71.75L94.8113 76.31C94.5638 78.4137 92.685 80 90.4463 80V80Z" fill="#3C93DB"/>
<path d="M109.624 60.002H102.574C102.45 61.6745 102.225 63.3507 101.876 65.0007H109.001V92.4995H58.9988V65.0007H66.1237C65.775 63.3507 65.55 61.6745 65.4225 60.002H58.3725C55.9763 60.002 54 61.9745 54 64.3745V98.1245C54 100.524 55.9762 102.501 58.3762 102.501H77.5275C77.2275 103.749 76.4512 105.774 74.3775 107.874C74.0025 108.223 73.9013 108.748 74.1038 109.224C74.2988 109.701 74.7487 110.001 75.2512 110.001H92.7525C93.2512 110.001 93.7013 109.701 93.9038 109.224C94.1025 108.748 94.005 108.223 93.63 107.874C91.5488 105.801 90.75 103.749 90.45 102.501H109.624C112.024 102.501 114 100.524 114 98.1245V64.3745C114 61.9745 112.024 60.002 109.624 60.002V60.002Z" fill="#1E4388"/>
</g>
<defs>
<filter id="filter0_d" x="0" y="0" width="168" height="168" filterUnits="userSpaceOnUse" color-interpolation-filters="sRGB">
<feFlood flood-opacity="0" result="BackgroundImageFix"/>
<feColorMatrix in="SourceAlpha" type="matrix" values="0 0 0 0 0 0 0 0 0 0 0 0 0 0 0 0 0 0 127 0" result="hardAlpha"/>
<feOffset dy="4"/>
<feGaussianBlur stdDeviation="12"/>
<feComposite in2="hardAlpha" operator="out"/>
<feColorMatrix type="matrix" values="0 0 0 0 0 0 0 0 0 0 0 0 0 0 0 0 0 0 0.09 0"/>
<feBlend mode="normal" in2="BackgroundImageFix" result="effect1_dropShadow"/>
<feBlend mode="normal" in="SourceGraphic" in2="effect1_dropShadow" result="shape"/>
</filter>
</defs>
</svg>
