<svg width="66" height="67" viewBox="0 0 66 67" fill="none" xmlns="http://www.w3.org/2000/svg">
<g clip-path="url(#clip0)">
<path fill-rule="evenodd" clip-rule="evenodd" d="M0 33.0234C0 24.2713 3.47678 15.8776 9.66548 9.68891C15.8542 3.50021 24.2479 0.0234375 33 0.0234375C41.7521 0.0234375 50.1458 3.50021 56.3345 9.68891C62.5232 15.8776 66 24.2713 66 33.0234C66 41.7756 62.5232 50.1693 56.3345 56.358C50.1458 62.5467 41.7521 66.0234 33 66.0234C24.2479 66.0234 15.8542 62.5467 9.66548 56.358C3.47678 50.1693 0 41.7756 0 33.0234H0ZM31.1168 47.1474L50.116 23.3962L46.684 20.6506L30.4832 40.895L19.008 31.3338L16.192 34.713L31.1168 47.1518V47.1474Z" fill="#1E4388"/>
</g>
<defs>
<clipPath id="clip0">
<rect width="66" height="66" fill="white" transform="translate(0 0.0234375)"/>
</clipPath>
</defs>
</svg>
