<svg width="32" height="30" viewBox="0 0 32 30" fill="none" xmlns="http://www.w3.org/2000/svg">
<path d="M30.0919 1.95416C28.8594 0.721735 27.2208 0.0429688 25.4778 0.0429688C23.7348 0.0429688 22.0963 0.721735 20.8638 1.95416L1.47922 21.3388C-0.493072 23.3111 -0.493072 26.5202 1.47922 28.4924C2.46532 29.4785 3.76068 29.9716 5.05604 29.9716C6.35132 29.9716 7.64668 29.4785 8.63279 28.4924L23.8997 13.2255C25.2986 11.8266 25.2986 9.55053 23.8997 8.1516C22.5009 6.75274 20.2247 6.75274 18.8259 8.1516L9.01771 17.9597C8.71834 18.259 8.71834 18.7445 9.01771 19.0439C9.31707 19.3433 9.80258 19.3433 10.1019 19.0439L19.91 9.23583C20.711 8.43479 22.0145 8.43479 22.8154 9.23583C23.6165 10.0369 23.6165 11.3403 22.8154 12.1413L7.54871 27.4083C6.17423 28.7827 3.93785 28.7828 2.56337 27.4083C1.89756 26.7425 1.53089 25.8573 1.53089 24.9156C1.53089 23.974 1.89756 23.0888 2.56337 22.4229L21.9479 3.03839C22.8908 2.09552 24.1444 1.57629 25.4778 1.57629C26.8113 1.57629 28.0649 2.09552 29.0077 3.03839C30.954 4.98476 30.954 8.15175 29.0077 10.0981L15.0818 24.024C14.7825 24.3233 14.7825 24.8087 15.0818 25.1082C15.3812 25.4076 15.8666 25.4076 16.1661 25.1082L30.0919 11.1824C32.636 8.6381 32.636 4.49834 30.0919 1.95416Z" fill="#1E4388"/>
</svg>
