<svg width="1920" height="2469" viewBox="0 0 1920 2469" fill="none" xmlns="http://www.w3.org/2000/svg">
<g filter="url(#filter0_f)">
<path d="M1022 1164.78C1022 1222.66 956.857 1269.57 876.5 1269.57C796.143 1269.57 731 1222.66 731 1164.78C731 1106.91 796.143 1060 876.5 1060C956.857 1060 1022 1106.91 1022 1164.78Z" fill="#3AE59F"/>
<path d="M437 1411.67C437 1479.97 359.993 1535.34 265 1535.34C170.007 1535.34 93 1479.97 93 1411.67C93 1343.37 170.007 1288 265 1288C359.993 1288 437 1343.37 437 1411.67Z" fill="#3AE59F"/>
<path d="M1758 1400.74C1758 1493.39 1657.49 1568.49 1533.5 1568.49C1409.51 1568.49 1309 1493.39 1309 1400.74C1309 1308.1 1409.51 1233 1533.5 1233C1657.49 1233 1758 1308.1 1758 1400.74Z" fill="#3AE59F"/>
<path d="M1689 1060.1C1689 1148.52 1601.7 1220.2 1494 1220.2C1386.3 1220.2 1299 1148.52 1299 1060.1C1299 971.679 1386.3 900 1494 900C1601.7 900 1689 971.679 1689 1060.1Z" fill="#3AE59F"/>
<path d="M414 1069.99C414 1163.88 329.382 1239.99 225 1239.99C120.618 1239.99 36 1163.88 36 1069.99C36 976.109 120.618 900 225 900C329.382 900 414 976.109 414 1069.99Z" fill="#3AE59F"/>
</g>
<defs>
<filter id="filter0_f" x="-864" y="0" width="3522" height="2468.49" filterUnits="userSpaceOnUse" color-interpolation-filters="sRGB">
<feFlood flood-opacity="0" result="BackgroundImageFix"/>
<feBlend mode="normal" in="SourceGraphic" in2="BackgroundImageFix" result="shape"/>
<feGaussianBlur stdDeviation="450" result="effect1_foregroundBlur"/>
</filter>
</defs>
</svg>
